<svg id="f9ecc38e-5042-42c9-9155-92133dc3b7e4" xmlns="http://www.w3.org/2000/svg" viewBox="0 0 1920 1024"><g id="a6c7d2be-79e7-415a-8f4f-62cce8730e0b"><g id="fc589c88-5108-4f09-8170-0a7431cb8414"><g id="a17e7ebd-a986-4127-b651-e8460a6cd87e"><g id="fe6713b9-06d5-45a0-9b33-f440fada35fc"><path id="aa5be2f1-be64-42a2-9df4-58291db6b3ea" d="M1365-151.1c10,.1,28.2,12.2,36.5,15.9,84.2,38.4,218.8,77.4,236,184.6,6.6,41.1-9.9,82.8-32.3,117.9-43,67.2-98.3,125-129.1,199.8-39.6,96.2,49.2,138.6,133.6,124.7,75.7-12.4,131.9-53.3,202.5-73.6,37.7-10.9,108-21.7,108.3,26.7l-3.2-591.8L1365-151.1" style="fill:#ff6363;fill-rule:evenodd"/><path id="ac9f2fb3-7324-40e6-b84f-4d2738fcb9aa" d="M1199.4,1133.6a30.71,30.71,0,0,0,10.9-.1,132.51,132.51,0,0,0,18.8-4.7c6.1-1.9,11.8-3.8,15.4-4.6,50.9-11.7,115.8-20.4,174.2-41.6s110.6-54.9,135.5-116.9a156.2,156.2,0,0,0,5.9-17.9c11.5-43,5.3-89.7-7.4-131.5-27.6-90.9-71-173.4-83-269.5-2.8-22-1.6-40.9,2.7-56.7,8.5-31.6,29-51.6,55.6-61.8s59.1-10.4,91-1.8a183.5,183.5,0,0,1,27.8,9.8c77.8,34,127.1,96.8,198.2,139.5,15.4,9.2,36.6,19.8,57.5,25.4,15.2,4.1,30.3,5.5,43,1.6a38.56,38.56,0,0,0,16.8-10.3c4.7-5,8.3-11.7,10.6-20.2a7.37,7.37,0,0,1,.4-1.4l-4.3-1.1c-.1.4-.2.9-.3,1.3-2.1,7.9-5.4,13.9-9.5,18.3-6.2,6.6-14.4,9.9-23.9,10.9s-20.4-.5-31.4-3.5c-20.3-5.4-41.2-15.9-56.4-25-70.3-42-119.7-105.1-198.7-139.7a203.55,203.55,0,0,0-28.4-10c-32.7-8.7-66.1-8.6-93.7,1.9s-49.5,31.8-58.3,64.8c-4.4,16.5-5.6,35.9-2.8,58.4,12.2,97,55.7,179.8,83.1,270.2,12.5,41.3,18.6,87.2,7.4,129a146.35,146.35,0,0,1-5.8,17.3c-24.2,60.4-75,93.4-132.8,114.4s-122.5,29.6-173.7,41.4c-5.3,1.2-13.5,4.2-21.9,6.5a80.26,80.26,0,0,1-12,2.7,25.86,25.86,0,0,1-9.2.1l-1.3,4.8" style="fill:#f8f8f8;fill-rule:evenodd"/></g></g></g></g></svg>