<svg id="f9ecc38e-5042-42c9-9155-92133dc3b7e4" xmlns="http://www.w3.org/2000/svg" viewBox="0 0 1920 1024"><g id="a6c7d2be-79e7-415a-8f4f-62cce8730e0b"><g id="fc589c88-5108-4f09-8170-0a7431cb8414"><g id="a17e7ebd-a986-4127-b651-e8460a6cd87e"><g id="a47d3708-7f12-415a-941e-c923fe8f808f"><path id="ad161822-52b0-4661-9673-3a8639dc80fe" d="M180.9,889.1C175,793.9,113,658.3-2.7,708.5c-80.8,35-132,120.1-96.5,206.6,28.3,69.1,91.3,100.4,163.6,99.2,32.5-.5,71.4-1.9,93.5-29,21.1-25.9,25-64.1,23-96.2" style="fill:#2128bd;fill-rule:evenodd"/><path id="ebcb0573-e1e8-4f27-a7d0-9af7e06eff1c" d="M61.5,684.3a33,33,0,0,1-2.5-3.6c-3.4-5.9-5.8-14.3-7.8-22.5s-3.5-16.2-4.9-20.8C30.1,583.7,3.9,518.2-7.8,453.3c-5.8-32.5-8.1-64.9-3.5-95.6s15.9-59.8,37.2-85.5c12.1-14.6,26.8-26.3,43-35.7,27.7-16,59.9-25.1,91.7-30,96-14.6,192.7-10.5,285.1-42.2a159.32,159.32,0,0,0,28.6-12.8c29.4-17,44-40.2,47.6-65.8S518,31.9,502.6,5.3c-12.5-21.6-30.1-42.1-51-59.2C380.1-112.7,298-131.2,222.5-179.6c-23-14.8-54.4-39-69.4-65-5.7-9.8-9-20-8.4-30.1s5.3-19.8,15.1-28.5l2.8,3.1c-9.1,8.1-13.1,16.7-13.7,25.6s2.4,18.3,7.9,27.7c14.3,24.8,45.4,49,68,63.5,74.7,48,157.1,66.6,229.5,126C475.5-39.9,493.5-19,506.2,3.1c15.7,27.2,23.5,56.2,19.8,83.1s-19.3,51.3-49.6,68.9a171.26,171.26,0,0,1-29.3,13.1c-93.4,32-190.4,27.8-285.9,42.4C129.8,215.4,98.1,224.4,71,240a153.45,153.45,0,0,0-41.8,34.7C8.5,299.8-2.6,328-7.1,358.1c-6.7,45.2,1.5,94.4,14.5,142.5s30.8,94.9,43,135.4c1.5,5,3,12.9,4.9,21s4.3,16.3,7.3,21.4a30.45,30.45,0,0,0,2,2.9l-3.1,3" style="fill:#dbdbdb;fill-rule:evenodd;opacity:0.30000001192092896;isolation:isolate"/><path id="a84a5ed5-df80-4816-8499-92fec242cb59" d="M-383.3,1045.9c0-22.3.7-71.6.7-123.6V609c0-9.9-4.5-23.8,2.3-31.8,2.3-2.8,6-4.8,11.7-5.8,41.9-7,84.2-17.2,126.8-23.9,40.8-6.4,87.6-12.5,127.5-.7,62.3,18.5,96.1,70,95.4,119.8-.8,56.3-30.4,108.6-59.6,159-18.4,31.8-43.6,62.7-50.9,99.6-8.4,42.3,21.5,69.9,62.6,70.9,56.7,1.4,108.6-29.2,156-56.6,45.1-26.2,86-58.9,130.5-86.1,40.7-24.9,76.3-38.1,124.7-32.7,81.4,9.2,148,66.2,189.6,133.9,12.6,20.4,29.8,46.6,29.8,71.2V1052l-947.1-6.1" style="fill:#fc0;fill-rule:evenodd"/></g></g></g></g></svg>