<?xml version="1.0" encoding="utf-8"?>
<!-- Generator: Adobe Illustrator 22.1.0, SVG Export Plug-In . SVG Version: 6.00 Build 0)  -->
<svg version="1.1" id="Layer_1" xmlns="http://www.w3.org/2000/svg" xmlns:xlink="http://www.w3.org/1999/xlink" x="0px" y="0px"
	 viewBox="0 0 433 482.3" style="enable-background:new 0 0 433 482.3;" xml:space="preserve">
<style type="text/css">
	.st0{fill:#FFDA3E;}
	.st1{fill:#7083E3;}
	.st2{fill:#8395ED;}
	.st3{fill:#7E90E8;}
	.st4{fill:#1A2351;}
	.st5{fill:#1A2766;}
	.st6{fill:#D2D7F3;}
	.st7{fill:#FFE443;}
	.st8{fill:#3849A1;}
	.st9{fill:#7D93FF;}
	.st10{fill:#323F81;}
	.st11{fill:#E84286;}
	.st12{fill:#E6E8F5;}
	.st13{fill:#9AA6D6;}
	.st14{fill:#FFFFFF;}
	.st15{fill:#A6B3F6;}
</style>
<title>person</title>
<path class="st0" d="M62.2,302.1c-5.4,5.2-7.6,13.4-2.4,19.7c5,5.8,14.3,7.1,20.3,2.4c14.7-11.2-0.6-32.2-16.4-27.9
	c-3,0.9-2.2,5,0.6,5.2c4.5,0.2,9.5,0.4,13.4,3.7c3.8,3.5,4.2,9.4,0.9,13.4c-8.6,10.6-23.6-5-14.5-14.5
	C65.3,302.8,63.3,301,62.2,302.1z"/>
<path class="st1" d="M113.7,315.1c1.9,7.3,4.1,14.7,6.5,22.1c0.6,1.7,2.2,2.4,3.7,1.3c5.8-4.1,11.9-8,17.5-12.5c0.9-0.7,1-2,0.3-2.8
	c-0.1-0.2-0.3-0.3-0.5-0.4c-6.5-4.5-15.6-11.2-23.8-11.2c-2.2,0-3.7,3-1.5,4.3c3.5,1.9,7.4,2.6,11,4.1c4.2,1.7,8.2,3.8,11.9,6.3
	c0-1.3,0.2-2.4,0.2-3.7c-6.3,3.9-12.1,8.2-18.2,12.5c1.1,0.2,2.4,0.4,3.5,0.6c-2.6-7.1-5.2-14.5-8-21.4
	C115.9,312.7,113.3,313.5,113.7,315.1z"/>
<path class="st2" d="M121,392.2c-7.7-6-15.9-11.3-24.4-16c-3-1.7-6,2.4-3,4.5c7.7,5.6,16.9,10.4,25.7,14.7
	C121.2,396.4,122.5,393.3,121,392.2z"/>
<path class="st3" d="M349.3,321.8c5.8-7.8,11.9-16.3,16.4-24.9c1.7-3.3-2.9-5.5-4.7-2.7c-5.5,8-10.4,16.5-14.5,25.3
	C345.7,321.3,348,323.6,349.3,321.8z"/>
<path class="st4" d="M97.5,110.9c-0.2-0.2-0.4-0.2-0.4-0.4c-2.2-1.9-5.8-2.4-8,0c-2.2,2.2-2.2,5.8,0,8c0.2,0.2,0.2,0.4,0.4,0.4
	c2.2,2.2,5.8,2.2,8,0C99.4,116.7,99.9,113,97.5,110.9z"/>
<path class="st5" d="M224.4,231.7c3.8-12,8.7-23.5,13.3-35.2c0.4-1-1-1.5-1.6-0.6c-5.8,11-9.8,23.4-13.1,35.3
	C222.6,232,224,232.5,224.4,231.7z"/>
<path class="st6" d="M133.6,71.2l-2,64l31.8,3.7l16,18l-3.9-17.5l32.6,2.8c0,0,4.3-66.2,3-68.8L133.6,71.2z"/>
<path class="st7" d="M305.1,51.3c0,0-21.1-8-31.2,13.8c0,0-4.9,12.3-0.2,19.5s2.1,12,2.1,12l17.1,7.4c0,0,2-6.5,6.1-8.7
	c4.2-2.2,14.2-6.6,17.7-17.5C320.3,66.7,316.2,55,305.1,51.3z"/>
<path class="st8" d="M273,101.8c6.2,2.5,12.1,5.7,18.4,8c0.8,0.3,1.8-0.9,0.9-1.5c-5.4-3.8-12.4-6.1-18.7-7.9
	c-0.4-0.2-0.8-0.1-1.1,0.2s-0.1,0.8,0.2,1.1C272.9,101.7,273,101.7,273,101.8z"/>
<path class="st8" d="M273.1,108.1c2.5,0.8,5,2,7.4,3s4.8,2.5,7.3,3.4c0.4,0.2,0.9,0.1,1.2-0.3c0.2-0.4,0.1-0.9-0.3-1.2
	c-4.2-3.3-10.3-5.2-15.4-6.4C272.6,106.5,272.2,108,273.1,108.1z"/>
<path class="st8" d="M273.3,113c2.1,1.1,4,2.7,6.2,3.6c0.5,0.2,1.1-0.1,1.2-0.7c0.1-0.4,0-0.8-0.3-1c-1.7-1.5-4.4-2.4-6.6-3.3
	c-0.4-0.2-0.8-0.1-1.1,0.2c-0.2,0.4-0.1,0.8,0.2,1.1C273.2,112.9,273.3,112.9,273.3,113z"/>
<path class="st8" d="M280.8,98.5c3.1-6,4-13.5,5.6-20c-0.7-0.1-1.5,0.1-2.1,0c0.2,1.7,0,6.6,2.3,7.3s5-2.8,6-4.5l-2-0.9
	c-0.4,2-2.2,6.6,0.8,7.4c2.7,0.7,6-2.4,7.6-4c-0.5-0.5-1.2-1-1.7-1.5c-4.2,5.3-8,12.5-9.3,19.3c-0.2,1.1,1.6,1.6,2.1,0.7
	c2.6-6.4,4.4-12.9,8.9-18.3c0.4-0.5,0.2-1.2-0.3-1.6c-0.5-0.3-1.1-0.3-1.5,0.1c-0.5,0.7-4,3.9-5.2,2.7c-0.3-0.4,0.6-4.2,0.7-4.4
	c0.1-0.6-0.3-1.2-1-1.3c-0.4-0.1-0.8,0.1-1,0.4c-0.7,1.1-2.8,4.2-3.7,2.6c-0.5-0.9-0.5-3.3-0.6-4.5s-1.9-1.1-2.1,0
	c-1.6,6.4-4.4,13.4-4.5,20.2c0.2,0.3,0.6,0.4,0.9,0.3C280.6,98.7,280.7,98.6,280.8,98.5z"/>
<path class="st9" d="M223.7,64.5c10.4,1,21,2.7,31.4,3c0.9,0.1,1-1.2,0.1-1.4c-10.4-1.7-20.9-2.3-31.4-3.3
	C222.7,62.9,222.5,64.5,223.7,64.5z"/>
<path class="st9" d="M246.6,42.2c5.8,2.3,11.6,5.3,17.7,7c0.5,0.1,0.9-0.1,1.1-0.6c0.1-0.4,0-0.8-0.4-1c-5.6-2.9-11.8-4.9-17.6-7.2
	C246.3,40.2,245.6,41.7,246.6,42.2z"/>
<path class="st9" d="M278.6,44.3c-4.1-8.3-7.2-18.2-12.5-26c-0.8-1.3-2.5-0.2-2.2,1.2c3,8.8,8.9,17.1,13,25.2
	C277.5,45.9,279.2,45.3,278.6,44.3z"/>
<path class="st9" d="M296.9,41.9c0.8-1.8,0.2-4.2,0.1-6.1c-0.1-2.3-0.5-4.6-1-6.8c-0.4-1.1-2.2-0.9-2.2,0.2c0.1,2.3,0.4,4.5,0.8,6.7
	c0.4,1.8,0.4,4.4,1.7,5.9C296.5,42.2,296.7,42.3,296.9,41.9z"/>
<path class="st9" d="M312.2,44c4-8.6,8.4-17.8,11.1-26.8c0.3-1.2-1.4-2.2-2-0.8c-4.4,8.5-7.8,17.8-11,26.9
	C310.1,44.6,311.7,45.2,312.2,44z"/>
<path class="st9" d="M320.7,52.7c3.7-2.1,7.2-4.6,10.5-7.2c0.5-0.4,0.6-1.1,0.2-1.6c-0.4-0.5-1.1-0.6-1.6-0.2c-3.6,2.4-7,5-10.2,7.8
	c-0.3,0.3-0.3,0.8,0,1.2C319.9,53,320.4,53,320.7,52.7z"/>
<path class="st9" d="M325.7,63.6c5.4,0,10.9-0.7,16-1.1c4.7-0.5,9.8-0.4,14.2-1.8c1.1-0.2,0.8-1.8-0.3-2c-4.8-0.4-9.7,0.5-14.4,1.1
	c-5.4,0.4-10.8,1.1-16,2.2C324.4,62.1,324.5,63.5,325.7,63.6z"/>
<path class="st9" d="M326.2,77.5c2.7,2.6,8.6,4.2,12.3,2.7c0.6-0.2,0.9-0.9,0.6-1.5c-0.1-0.4-0.5-0.6-0.8-0.7
	c-2-0.4-3.9-0.3-5.7-0.6c-2-0.4-3.5-1.1-5.5-1.4C325.9,75.5,325.6,76.7,326.2,77.5z"/>
<path class="st9" d="M320.6,93.7c10.9,8.5,22.1,17.4,34.1,24.5c1.5,0.9,2.7-1.4,1.5-2.4c-10.5-8.8-22.7-16.2-34.2-23.8
	C321,91.2,319.5,93,320.6,93.7z"/>
<path class="st10" d="M76.6,270.9c0.4-3,0.4-5.8,2-8.4c3.2-5.2,8-3.9,12.5-1.5s9.1,3.7,14,1.5c7.8-3.5,11.5-15.4,4.1-20.8
	c-2.4-1.7-4.8,1.1-4.5,3.5c0.4,3.2,2,6.7-0.7,9.5c-3.7,3.7-8,0.6-11.7-1.1c-3.8-1.9-8.2-2-12.1-0.4c-6.9,2.8-12.1,12.3-6.5,18.8
	c0.9,0.6,2,0.3,2.6-0.5C76.5,271.3,76.5,271.1,76.6,270.9z"/>
<path class="st11" d="M207.5,328.6c0.1-10-0.6-19.9-2.2-29.7c-0.6-3.5-5.6-2.6-5.4,0.8c0.4,9.7,1.8,19.4,4,28.9
	C204,330.5,207.3,330.8,207.5,328.6z"/>
<path class="st12" d="M320.1,235.3c-3.3,6.8-6.4,13.9-9.3,21c-0.6,1.7,0.1,3.2,2,3.4c7.1,0.6,14.2,1.6,21.5,1.8c1.1,0,2-0.9,2-2
	c0-0.2,0-0.4-0.1-0.7c-2-7.7-4.6-18.6-10.9-24c-1.7-1.4-4.7-0.1-4,2.3c1.4,3.7,3.9,6.7,5.7,10.2c2.1,4,3.8,8.1,5,12.5
	c0.8-1,1.7-1.7,2.5-2.7c-7.3-1.1-14.5-1.6-22-2.2c0.7,0.9,1.5,1.9,2.2,2.7c2.6-7.1,5.4-14.4,7.7-21.5
	C323.3,234.9,320.7,233.9,320.1,235.3z"/>
<path class="st10" d="M338.8,409.5c8.5-4.8,17.4-10.1,25-16.3c2.8-2.4-0.1-6.1-3.3-4.3c-8.3,5.1-16.2,10.9-23.5,17.4
	C335.6,407.7,336.8,410.5,338.8,409.5z"/>
<path class="st13" d="M11.9,179.8l15.2,64.5l120.2-18.2l10.1,21.9l3.2-26.3l22.7-4.7l-19.5-56.8L11.9,179.8z"/>
<path class="st14" d="M31.3,201.3c41-7.9,82.3-14.2,124.1-16.6c1.5,0,1.2-2.4-0.4-2.4c-41.7,3-83.2,8-124.1,16.7
	C29.7,199.5,30,201.7,31.3,201.3z"/>
<path class="st14" d="M35.6,214c41-7.9,82.3-14.2,124.1-16.6c1.5,0,1.2-2.4-0.4-2.4c-41.8,3-83.2,8-124.1,16.7
	C34,212.3,34.3,214.2,35.6,214z"/>
<path class="st14" d="M37.5,224.7c28-3.1,55-9.6,83.1-11.3c1.5,0,1.2-2.4-0.4-2.4c-28.1,2.3-55.2,7.7-83.1,11.5
	C35.9,222.9,36.2,224.9,37.5,224.7z"/>
<path class="st14" d="M159.3,86.2c-2.6,1.3-14.7,24.4-14.7,24.4s29.6,18.4,32.9,19.7s14.7-24.4,14.7-24.4S161.6,84.7,159.3,86.2z"/>
<path class="st4" d="M168.3,108.9c0,0.2,0.2,0.2,0.2,0.4l-1.1-0.6c13.4-2.1,24.2-3.4,24.2-3c0.2,0.4-10.4,2.6-23.8,4.8l-0.6,0.2
	L167,110c0-0.2-0.2-0.2-0.2-0.4C162,96.8,158.6,86.2,159,86C159.7,86,163.8,96.1,168.3,108.9z"/>
<path class="st6" d="M266.9,123.2l-21.5,56.1l22.5,5.5l2.3,26.4l10.9-21.5l119.4,22.4l17.5-63.9L266.9,123.2z"/>
<path class="st14" d="M398.1,166.9c-40.5-10.2-81.8-16.6-123.4-21.1c-1.5-0.1-2,2.3-0.4,2.3c41.7,3.9,82.8,11.6,123.4,21
	C399,169.5,399.4,167.4,398.1,166.9z"/>
<path class="st14" d="M393.4,179.4c-40.5-10.2-81.8-16.6-123.4-21.1c-1.5-0.1-2,2.3-0.4,2.3c41.7,3.9,82.8,11.6,123.4,21
	C394.2,181.8,394.6,179.9,393.4,179.4z"/>
<path class="st14" d="M391.1,190.1c-27.7-4.8-54.7-11.1-82.6-14.4c-1.5-0.1-2,2.3-0.4,2.3c28.1,2.6,54.9,10.1,82.7,14.2
	C392,192.4,392.4,190.5,391.1,190.1z"/>
<path class="st4" d="M286,366.1c1.1-14.7,2.1-29.1,3.2-43.8c11.6-3.1,17.5-17.9,13-28.8s-17.5-17.2-29.5-15.4
	c7.4-4.9,7-17.2,0.7-23.9c-6-6.7-15.8-8.8-24.6-9.1c-9.1-0.4-18.2,0.7-27-1.1c-7.7-1.4-15.4-4.9-23.5-4.2
	c-8.1,1.1-15.4,9.7-11.2,16.5c-11.6-1.8-23.9-3.2-34.1,2.5c-10.2,5.7-15.1,21.1-6.7,28.8c-5.6,2.8-7.4,11.2-3.9,16.8
	c3.2,5.6,9.8,8.4,16.5,9.1c6.4,0.1,12.8-0.8,18.9-2.8"/>
<path class="st15" d="M284.2,337.6l-2.5,30.2c0,0,26,3.5,18.6,27c-7.4,23.5-25,13.3-25,13.3s-4.6,60.4-66.3,41.1
	c-49.1-15.1-46.3-79-40-133.4c2.5-20.1,20.7-34.4,40.8-31.9c0.8,0.1,1.5,0.2,2.3,0.4l37.2,7.4C270.9,296.1,285.7,315.7,284.2,337.6z
	"/>
<path class="st15" d="M281.8,393.1l-16.5,67.5c-3.7,14.7-22.4,24.4-41.8,21.6c-0.5-0.1-0.9-0.1-1.4-0.2c-18.3-3.3-30-16.9-26.7-31
	l9.1-38.7L281.8,393.1z"/>
<path class="st4" d="M213.7,394.1c0,0,0.3,1.4-1.4,2.1c-1.8,0.7-4.9-1-5.6-3.8c-1.1-2.8-0.7-6.3-0.7-10.2c0.4-3.9,0.4-7.7,0.7-11.9
	c1.1-16.8,2.5-30.5,3.5-30.2c0.7,0,0.7,13.7-0.4,30.5c-0.4,4.2-0.7,8.1-0.7,11.9c-0.5,3-0.5,6.1,0,9.1c0.1,1.9,1.6,3.4,3.5,3.5
	C213,394.9,213.3,393.8,213.7,394.1z"/>
<path class="st4" d="M193.7,443.3c0.4-0.4,3.2,1.8,8.4,3.9c6.7,2.8,13.8,4.5,21.1,4.9c7.2,0.2,14.4-1.1,21.1-3.9
	c5.3-2.1,8.1-3.9,8.4-3.5s-2.5,2.8-7.7,5.6c-6.8,3.5-14.4,5.2-22.1,4.9c-7.6-0.3-15.1-2.3-21.8-6
	C195.8,446.1,193.3,443.3,193.7,443.3z"/>
<path class="st4" d="M205.6,406.4c0.4-0.4,1.8,1,4.2,2.1c3.3,1.5,7.1,1.8,10.5,0.7c3.4-1.2,6.3-3.6,8.1-6.7c1.4-2.5,1.8-4.2,2.1-4.2
	c0.4,0,0.7,2.1-0.4,5.3c-1.6,4.1-4.9,7.3-9.1,8.8c-4.2,1.2-8.6,0.6-12.3-1.8C206.3,408.5,205.2,406.8,205.6,406.4z"/>
<path class="st4" d="M283.8,398c0-0.4,1.4-0.7,3.2-1.8c0.7-0.7,1.8-1.4,1.8-2.5c0.4-0.9,0-2-0.9-2.4c-0.1,0-0.1,0-0.2-0.1
	c-0.7-0.4-1.4,0-1.4,0.3l-2.5-1.4c2.5-4.9,4.6-8.1,4.9-7.7c0.7,0.4-0.3,3.9-2.5,9.1l-2.5-1.4c1.1-1.6,3.1-2.2,4.9-1.4
	c1.2,0.6,2,1.6,2.5,2.8c0.4,1,0.4,2.2,0,3.2c-0.7,1.6-1.9,2.8-3.5,3.5C285.3,398.7,283.8,398.3,283.8,398z"/>
<path class="st4" d="M236.1,338c-0.4-0.7,2.8-2.5,7-1.4s6,4.2,5.3,4.6c-0.7,0.7-2.8-1.1-6.3-1.8C239.3,338.7,236.4,338.7,236.1,338z
	"/>
<path class="st4" d="M182.9,329.6c-0.4-0.7,2.8-2.8,7.4-2.5c4.6,0.4,7.4,3.1,6.7,3.5c-0.4,0.7-3.5-0.4-7-0.7
	C186.3,329.6,183.1,330.2,182.9,329.6z"/>
<path class="st4" d="M281.8,367.8c-17.2-16.8-22.5-44.9-27-68.4c-16.5,11.6-37.6,14.4-56.5,7.4c-5.8,6.7-12.5,12.6-20,17.5
	c-2.1,1.4-4.6,2.8-7,2.1c-2.8-0.7-4.2-4.2-4.9-7c-2.1-9.5-2.5-19.7,1.1-28.8c3.1-9.4,10.2-16.9,19.3-20.7c9.5-3.9,20.4-2.1,30.5,0.4
	c15.2,3.9,29.7,9.9,43.2,17.9c13.3,7.7,26,17.9,31.6,32.3s5.6,41.8-8.1,49.1"/>
<path class="st4" d="M241,362.9c-0.7,0-1.4-2.1-1.1-4.9c0.4-2.5,1.1-4.6,1.8-4.6s1.4,2.1,1,4.9C242.4,360.8,241.7,362.9,241,362.9z"
	/>
<path class="st4" d="M191.2,356.6c-0.7,0-1.4-2.1-1.1-4.9c0.4-2.5,1.1-4.6,1.8-4.6s1.4,2.1,1.1,4.9
	C193,354.5,192.3,356.6,191.2,356.6z"/>
<path class="st10" d="M216.6,361.1c-0.6-1.2-3-4.3-5.7-4.9c-2.7-0.6-6,2-6.9,2.9l-3.2-3.4c0.5-0.5,5.5-5.1,11-4.1
	c5.5,1,8.8,6.9,9,7.1L216.6,361.1z"/>
<path class="st4" d="M283.6,362.2c-0.7-1.3-1.9-2.2-3.2-2.7l-18.1,0.2v4.7l21.6,0.5C283.6,364.2,283.9,362.8,283.6,362.2z"/>
<path class="st10" d="M177,376.1L177,376.1c-2.8-0.4-5.6-1.1-8.3-2c-16-5.4-12.3-23.5-11-29.5c0.5-2.3,1.6-4.5,3.2-6.3
	c1.9-1.9,4.3-3.2,6.8-4c2.3-0.7,4.6-1,7-1.1c3.7-0.1,7.4,0,11.1,0.5c0.6,0,1.2,0.2,1.9,0.3c11.5,1.8,17.6,6.1,18.1,13
	c0.4,4.9-1,10.2-2.3,14.9l-0.3,1.2C200.7,373.3,190.8,378.2,177,376.1z M187.1,338.6l-1.8-0.2c-3.4-0.5-6.9-0.6-10.3-0.5
	c-2,0-3.9,0.3-5.8,0.9c-1.8,0.5-3.5,1.5-4.9,2.8c-1,1.1-1.8,2.5-2.1,4c-2.9,13.9-0.4,21.3,8,24.1c2.5,0.8,5,1.5,7.5,1.9
	c15.5,2.3,19.9-5.1,21.1-9.7l0.3-1.2c1.1-4.3,2.4-9.2,2.1-13.3C200.9,342.8,196.3,340,187.1,338.6L187.1,338.6z"/>
<path class="st10" d="M237.2,385.2c-13.7-2.1-21.7-9.7-21.2-20.4v-1.2c0.2-4.9,0.4-10.3,2.2-14.9c2.5-6.4,9.6-8.7,21.1-7l1.9,0.3
	c3.7,0.6,7.3,1.6,10.8,2.8c2.3,0.8,4.4,1.8,6.4,3.1c2.2,1.5,4,3.5,5.3,5.8c1,2.2,1.5,4.6,1.3,7c-0.6,6.1-2.4,24.5-19.3,24.9
	C242.9,385.8,240,385.7,237.2,385.2z M238.8,346.4c-9.2-1.4-14.5,0-16.1,4.1c-1.5,3.8-1.7,8.9-1.9,13.4v1.2
	c-0.2,4.9,1.7,13.3,17.2,15.6c2.6,0.4,5.2,0.5,7.8,0.5c8.8-0.2,13.4-6.6,14.8-20.7c0.1-1.5-0.2-3.1-0.8-4.5c-0.9-1.6-2.2-3-3.8-4.1
	c-1.6-1.1-3.4-2-5.3-2.6c-3.3-1.1-6.6-2-10-2.6C240,346.6,239.4,346.5,238.8,346.4L238.8,346.4z"/>
</svg>
