<?xml version="1.0" encoding="utf-8"?>
<!-- Generator: Adobe Illustrator 22.1.0, SVG Export Plug-In . SVG Version: 6.00 Build 0)  -->
<svg version="1.1" id="Layer_1" xmlns="http://www.w3.org/2000/svg" xmlns:xlink="http://www.w3.org/1999/xlink" x="0px" y="0px"
	 viewBox="0 0 268 210" width="100%" style="enable-background:new 0 0 268 210;" xml:space="preserve">
<path d="M5.4,50.5c0-14,0-28.1,0-42.1c0-2.1,0.4-2.9,2.7-2.8c5.8,0.2,11.6,0.2,17.4,0c2,0,2.5,0.6,2.4,2.5c-0.1,5.6,0,11.2-0.1,16.8
	c0,1.7,0.2,2.5,2.2,2.4c11.1-0.1,22.3,0.3,33.4-0.2c13.4-0.6,23.2-7.4,29.3-19.4c0.8-1.6,1.6-2.3,3.5-2.3c6.1,0.1,12.2,0.1,18.2,0
	c2.2,0,2.9,0.2,2.2,2.8c-3.3,11.5-9.5,21-18.7,28.6c-1.7,1.4-1.7,1.9,0,3.3c13.6,11.4,20.5,26.1,20.6,43.9c0,3.1-0.1,6.2,0,9.3
	c0,1.4-0.3,2-1.8,2c-6.3-0.1-12.5-0.1-18.8,0c-1.9,0-1.8-0.9-1.9-2.2c-0.4-6.3-0.1-12.8-1.7-18.9c-3.8-14.6-17.4-24.4-32.5-24.4
	c-10.5,0-21,0.1-31.4-0.1c-2.1,0-2.8,0.4-2.8,2.7c0.1,13.5,0,27,0.1,40.4c0,2-0.5,2.5-2.5,2.5c-5.9-0.1-11.8-0.1-17.7,0
	c-2.1,0.1-2.4-0.6-2.4-2.5C5.5,78.7,5.4,64.6,5.4,50.5z"/>
<path d="M146.3,161.6c0-13,0.1-26-0.1-39c0-2.4,0.7-3,3-2.9c5.7,0.2,11.4,0.2,17.1,0c2.2-0.1,2.6,0.7,2.6,2.7
	c-0.1,13.4,0,26.8-0.1,40.1c0,2.2,0.6,2.8,2.8,2.8c21-0.1,41.9-0.1,62.9,0c2.1,0,2.7-0.5,2.7-2.6c-0.1-13.4,0-26.8-0.1-40.1
	c0-2.2,0.6-2.8,2.8-2.8c5.9,0.1,11.8,0.1,17.7,0c1.7,0,2.2,0.5,2.2,2.2c0,26.6-0.1,53.2,0,79.7c0,1.8-0.7,2.1-2.3,2.1
	c-6.1-0.1-12.2-0.1-18.2,0c-1.8,0-2.2-0.5-2.2-2.2c0.1-3.8,0-7.7,0.1-11.5c0-1.7-0.3-2.5-2.3-2.4c-21.2,0.1-42.5,0.1-63.7,0
	c-1.9,0-2.4,0.6-2.3,2.4c0.1,3.8-0.1,7.7,0.1,11.5c0.1,1.9-0.6,2.3-2.4,2.3c-6-0.1-12-0.1-18,0c-1.9,0-2.3-0.6-2.3-2.4
	C146.3,188.2,146.3,174.9,146.3,161.6z"/>
<path d="M203,5.6c-18.1,0-36.1,0-54.2-0.1c-2.1,0-2.6,0.5-2.6,2.6c0.1,28.2,0.1,56.3,0,84.5c0,2.2,0.6,2.8,2.8,2.8
	c5.7-0.2,11.4-0.2,17.1,0c2.2,0.1,2.8-0.6,2.8-2.8c-0.1-20.5,0-41-0.1-61.5c0-2.4,0.5-3.1,3-3.1c28.3,0.1,56.7,0,85,0.1
	c2.3,0,3-0.5,2.9-2.9c-0.2-5.7-0.2-11.4,0-17.1c0.1-2.1-0.5-2.6-2.6-2.6C239.1,5.6,221,5.6,203,5.6z"/>
<path d="M53.4,203.4c20.7-10.6,34.3-26.7,40.4-49c2.6-9.6,2.6-19.4,2.5-29.2c0-5.5,0-5.5,5.6-5.5c5,0,9.9,0,14.9,0
	c1.4,0,2,0.3,2,1.9c0.1,13.3,0.3,26.5-3.3,39.5c-4.4,15.7-12.1,29.7-23.4,41.5c-0.6,0.6-1.5,1.1-2.3,1.2c-11.9,0.1-23.8,0-35.6,0
	C54,203.8,53.8,203.6,53.4,203.4z"/>
<path d="M27.9,161.9c0,13.1-0.1,26.2,0.1,39.3c0,2.3-0.7,2.8-2.8,2.7c-5.9-0.1-11.8-0.1-17.7,0c-1.5,0-2.1-0.3-2.1-2
	c0.1-26.7,0.1-53.3,0-80c0-1.8,0.5-2.2,2.2-2.2c5.9,0.1,11.8,0.2,17.7,0c2.4-0.1,2.7,0.9,2.7,2.9C27.8,135.7,27.9,148.8,27.9,161.9z
	"/>
<circle cx="207.3" cy="65.2" r="11"/>
</svg>
