<svg id="Layer_1" data-name="Layer 1" xmlns="http://www.w3.org/2000/svg" viewBox="0 0 461 511.34"><defs><style>.cls-1{fill:#8a9dfc;}.cls-2{fill:#7083e3;}.cls-3{fill:#8395ed;}.cls-4{fill:#7e90e8;}.cls-5{fill:#1a2351;}.cls-6{fill:#a6b3f6;}.cls-7{fill:#1a2766;}.cls-8{fill:#3849a1;}.cls-14,.cls-9{fill:#fff;}.cls-9{opacity:0.41;isolation:isolate;}.cls-10{fill:#d2d7f3;}.cls-11{fill:#7d93ff;}.cls-12{fill:#323f81;}.cls-13{fill:#e6e8f5;}</style></defs><title>person</title><path class="cls-1" d="M174.93,229.18c-5.41,5.19-7.57,13.4-2.38,19.67,5,5.84,14.27,7.14,20.33,2.38,14.7-11.24-.65-32.22-16.44-27.89-3,.86-2.16,5,.65,5.19,4.54.21,9.52.43,13.41,3.67a9.74,9.74,0,0,1,.86,13.41c-8.65,10.6-23.57-5-14.48-14.49C178,229.83,176,228.1,174.93,229.18Z" transform="translate(0 0)"/><path class="cls-2" d="M326.29,247.12q2.91,11,6.49,22.06c.64,1.73,2.16,2.38,3.67,1.3,5.84-4.11,11.9-8,17.52-12.54a2,2,0,0,0-.22-3.25c-6.49-4.54-15.57-11.24-23.79-11.24-2.16,0-3.67,3-1.51,4.32,3.46,1.95,7.35,2.6,11,4.11a62.53,62.53,0,0,1,11.89,6.27c0-1.3.22-2.38.22-3.67-6.27,3.89-12.11,8.21-18.17,12.54,1.09.21,2.38.43,3.47.65-2.6-7.14-5.19-14.49-8-21.41C328.45,244.75,325.86,245.61,326.29,247.12Z" transform="translate(0 0)"/><path class="cls-3" d="M368,286.26c8.87-4.32,18-9.08,25.73-14.7,3-2.16,0-6.27-3-4.54a182.14,182.14,0,0,0-24.44,16C364.78,284.1,366.08,287.13,368,286.26Z" transform="translate(0 0)"/><path class="cls-4" d="M42.81,313.29c-1.94-9.51-4.32-19.68-7.78-28.76-1.3-3.46-6.06-1.51-5.19,1.73a180.43,180.43,0,0,0,9.3,27.68C40,315.67,43.25,315.45,42.81,313.29Z" transform="translate(0 0)"/><path class="cls-5" d="M70.49,228.1c-.22-.22-.43-.22-.43-.44-2.16-1.94-5.84-2.37-8,0a5.75,5.75,0,0,0,0,8c.21.22.21.44.43.44a5.75,5.75,0,0,0,8,0C72.44,233.93,72.87,230.26,70.49,228.1Z" transform="translate(0 0)"/><path class="cls-2" d="M306,475.89s-92.76,21.63-130.17-15.78L189.2,371c4.11-25.51,1.73-74.81,21.19-92.33a31.11,31.11,0,0,1,7.35-5c13.84-6.7,38.28-10.16,61.63-10.38,28.54-.21,57.95,21.41,65.3,49.08l-30.92,72.23Z" transform="translate(0 0)"/><path class="cls-6" d="M296.67,323.67s41.51,80,21,84.33c-67.9,14.05-107.25,25.51-107.25,25.51l-3.46,26.38c1.08,3.9,137.31.44,153.52-17.73,11.46-13,26.6-42.81-5.62-107.46l-9.73-22.06Z" transform="translate(0 0)"/><path class="cls-6" d="M218.61,282.37,115,322.37l-3.24-54.27-22.27-8.65s-32.22,87.14,8,103.36S182.93,349,182.93,349Z" transform="translate(0 0)"/><path class="cls-2" d="M231.37,269c-36.11,11.46-57.74,25.09-108.55,46.28L149,373.4l45-14.49Z" transform="translate(0 0)"/><path class="cls-2" d="M290.39,312.42l26.38,61L376,362.59l-40-68.54-47.14,18.37" transform="translate(0 0)"/><path class="cls-7" d="M259.48,354.16c12.54-.65,25.08-.22,37.62,0,1.08,0,1.08-1.52,0-1.73-12.33-1.52-25.3-.87-37.62.21C258.61,352.64,258.61,354.16,259.48,354.16Z" transform="translate(0 0)"/><path class="cls-7" d="M315.91,283.23c-42.6,3.9-13.41,66.6-2.59,85.63.64,1.08,2.16,0,1.73-.86-10.82-19.25-40-77.63,1.08-83.68C316.77,284.32,316.56,283.23,315.91,283.23Z" transform="translate(0 0)"/><path class="cls-7" d="M197.85,319.13a357.16,357.16,0,0,0-10.16,64.22c0,.86,1.51,1.08,1.51.21,3-21.4,6.06-42.81,9.51-64.22C198.93,318.91,198.07,318.48,197.85,319.13Z" transform="translate(0 0)"/><path class="cls-5" d="M297.53,203.23c.65-9.08,1.3-17.95,2-27,7.13-1.94,10.81-11,8-17.73s-10.81-10.59-18.17-9.51c4.55-3,4.33-10.6.44-14.71-3.68-4.11-9.73-5.4-15.14-5.62-5.62-.22-11.24.43-16.65-.65-4.76-.86-9.51-3-14.49-2.59-5,.65-9.51,6-6.92,10.16-7.13-1.08-14.7-2-21,1.51s-9.3,13-4.11,17.73c-3.46,1.73-4.54,6.92-2.38,10.38,1.95,3.46,6.06,5.19,10.17,5.62a35.43,35.43,0,0,0,11.67-1.72" transform="translate(0 0)"/><path class="cls-6" d="M296.45,185.71l-1.51,18.6s16,2.16,11.46,16.65S291,229.18,291,229.18s-2.81,37.19-40.86,25.3c-30.28-9.3-28.55-48.66-24.65-82.17a22.59,22.59,0,0,1,26.59-19.46L275,157.39A27,27,0,0,1,296.45,185.71Z" transform="translate(0 0)"/><path class="cls-6" d="M294.94,219.88l-10.17,54.7a22,22,0,0,1-26.59,17.3,21.77,21.77,0,0,1-16.44-25.08l5.63-31.35Z" transform="translate(0 0)"/><path class="cls-5" d="M253,220.53s.21.86-.87,1.29-3-.64-3.46-2.37c-.65-1.73-.43-3.9-.43-6.27.22-2.38.22-4.76.43-7.36.65-10.37,1.52-18.81,2.17-18.59.43,0,.43,8.43-.22,18.81-.22,2.59-.43,5-.43,7.35a16,16,0,0,0,0,5.62,2.28,2.28,0,0,0,2.16,2.17C252.55,221,252.77,220.31,253,220.53Z" transform="translate(0 0)"/><path class="cls-5" d="M240.66,250.8c.22-.22,2,1.08,5.19,2.38a38.26,38.26,0,0,0,13,3,31.09,31.09,0,0,0,13-2.38c3.24-1.3,5-2.38,5.19-2.17s-1.51,1.74-4.76,3.46a27,27,0,0,1-13.62,3,30.13,30.13,0,0,1-13.41-3.67C242,252.53,240.45,250.8,240.66,250.8Z" transform="translate(0 0)"/><path class="cls-5" d="M248,228.1c.22-.22,1.09.64,2.6,1.29a9.24,9.24,0,0,0,6.49.44,9.73,9.73,0,0,0,5-4.11c.86-1.52,1.08-2.6,1.3-2.6s.43,1.3-.22,3.25a9.25,9.25,0,0,1-5.62,5.4,9.37,9.37,0,0,1-7.57-1.08C248.45,229.39,247.8,228.31,248,228.1Z" transform="translate(0 0)"/><path class="cls-5" d="M296.23,222.91c0-.22.87-.44,1.95-1.09.43-.43,1.08-.86,1.08-1.51a1.11,1.11,0,0,0-.65-1.51c-.43-.22-.86,0-.86.21l-1.52-.86c1.52-3,2.82-5,3-4.76.43.22-.21,2.38-1.51,5.62l-1.52-.86a2.4,2.4,0,0,1,3-.87,3,3,0,0,1,1.51,1.73,2.94,2.94,0,0,1,0,2,4.13,4.13,0,0,1-2.16,2.16C297.1,223.34,296.23,223.12,296.23,222.91Z" transform="translate(0 0)"/><path class="cls-5" d="M266.83,185.93c-.22-.43,1.73-1.51,4.32-.86s3.68,2.59,3.24,2.81c-.43.43-1.72-.65-3.89-1.08C268.77,186.36,267,186.36,266.83,185.93Z" transform="translate(0 0)"/><path class="cls-5" d="M234,180.74c-.22-.43,1.73-1.73,4.54-1.51s4.54,1.94,4.11,2.16c-.22.43-2.16-.22-4.33-.43S234.18,181.17,234,180.74Z" transform="translate(0 0)"/><path class="cls-5" d="M294.94,204.31c-10.6-10.38-13.84-27.68-16.65-42.16a37.75,37.75,0,0,1-34.82,4.54,59.33,59.33,0,0,1-12.32,10.81c-1.3.86-2.81,1.73-4.33,1.3-1.73-.44-2.59-2.6-3-4.33-1.3-5.84-1.52-12.11.65-17.73A21,21,0,0,1,236.34,144c5.84-2.38,12.54-1.29,18.81.22a101.72,101.72,0,0,1,26.6,11c8.21,4.75,16,11,19.46,19.89s3.46,25.73-5,30.27" transform="translate(0 0)"/><path class="cls-5" d="M269.85,201.28c-.43,0-.86-1.29-.65-3,.22-1.52.65-2.81,1.09-2.81s.86,1.29.64,3C270.72,200,270.29,201.28,269.85,201.28Z" transform="translate(0 0)"/><path class="cls-5" d="M239.15,197.39c-.43,0-.87-1.3-.65-3,.22-1.51.65-2.81,1.08-2.81s.87,1.3.65,3C240.23,196.09,239.8,197.39,239.15,197.39Z" transform="translate(0 0)"/><path class="cls-6" d="M88.65,261.39s4.54-28.32,10.17-27.89c5.4.22,16.43,0,16.43,0s.86-26.81,3.89-22.49,4.11,40.44-7.78,57.74Z" transform="translate(0 0)"/><path class="cls-6" d="M210.39,433.51s-49.3,8.65-48.22,14.92a42.14,42.14,0,0,0,4.33,12.76l43.89-1.08Z" transform="translate(0 0)"/><path class="cls-8" d="M263.8,462.92l-.43-6.92L162,449.73l-34-91L16.43,365l38.06,98.38Z" transform="translate(0 0)"/><path class="cls-9" d="M77.84,408.21a8.23,8.23,0,1,0,7.79-8.64A8.23,8.23,0,0,0,77.84,408.21Z" transform="translate(0 0)"/><path class="cls-9" d="M74.6,408.43a11.48,11.48,0,1,0,10.81-12.11C79.14,396.54,74.38,402.16,74.6,408.43Z" transform="translate(0 0)"/><path class="cls-10" d="M0,464.87l435.48-5.41L461,472.87S126.71,564.55,0,464.87Z" transform="translate(0 0)"/><path class="cls-10" d="M340.78,142.69c-1.3,2.59,3,68.76,3,68.76l32.65-2.82-3.89,17.52,16-18,31.79-3.67-2-64Z" transform="translate(0 0)"/><path class="cls-11" d="M258,39.54s-22.49,1.09-23.14,25.09c0,0,.44,13.19,7.57,17.94s6.71,10.17,6.71,10.17h18.59S267,86,269.85,82.36c3-3.68,10.38-11.68,9.3-23.14C278.07,47.54,269.64,38.46,258,39.54Z" transform="translate(0 0)"/><path class="cls-8" d="M248.66,98.57c6.71-.21,13.41.44,20.11,0,.87,0,1.3-1.51.22-1.72-6.49-1.3-13.84-.65-20.33.21A.76.76,0,1,0,248.66,98.57Z" transform="translate(0 0)"/><path class="cls-8" d="M251.26,104.41c2.59-.21,5.4-.21,8-.21s5.4.43,8,.21a.87.87,0,0,0,.22-1.73c-5.19-1.29-11.46-.64-16.65.22C250.18,103.12,250.39,104.63,251.26,104.41Z" transform="translate(0 0)"/><path class="cls-8" d="M253.42,108.74c2.38.21,4.76.86,7.14.86a1,1,0,0,0,.21-1.94c-2.16-.65-5-.44-7.35-.44A.76.76,0,1,0,253.42,108.74Z" transform="translate(0 0)"/><path class="cls-8" d="M254.5,92.52c.43-6.7-1.73-14-2.81-20.54-.65.21-1.3.65-1.95.86.87,1.52,2.6,6.06,5,5.84s3.46-4.54,3.67-6.49h-2.16c.43,2,.65,6.92,3.68,6.49,2.81-.43,4.54-4.54,5.4-6.7-.65-.22-1.51-.43-2.16-.65-1.73,6.49-2.38,14.7-.86,21.41.21,1.08,2.16.86,2.16-.22-.22-6.92-1.08-13.62.86-20.33a1.13,1.13,0,0,0-2.16-.64c-.22.86-2.16,5.19-3.67,4.54-.44-.22-1.09-4.11-1.09-4.33a1.12,1.12,0,0,0-2.16,0c-.21,1.3-.86,5-2.38,3.89-.86-.64-1.73-2.81-2.38-3.89s-2.16-.21-1.94.87c1.08,6.48,1.3,14.05,3.89,20.32A.65.65,0,0,0,254.5,92.52Z" transform="translate(0 0)"/><path class="cls-11" d="M188.55,84.09c9.95-3.25,20.33-5.84,30.06-9.73.86-.22.43-1.52-.43-1.3-10.17,2.59-20.11,6.27-30.06,9.51C187,83,187.47,84.52,188.55,84.09Z" transform="translate(0 0)"/><path class="cls-11" d="M200.66,54.46c6.27-.21,12.76.22,19-.64a.87.87,0,0,0,0-1.73c-6.27-.44-12.76.21-19,.43C199.58,52.73,199.58,54.46,200.66,54.46Z" transform="translate(0 0)"/><path class="cls-11" d="M230.93,43.65c-7.13-6-13.84-13.84-21.84-18.81-1.29-.86-2.38.87-1.51,1.95,6.27,6.92,14.92,12.11,22,17.94C230.5,45.6,231.8,44.3,230.93,43.65Z" transform="translate(0 0)"/><path class="cls-11" d="M246.72,34.14c0-2-1.52-3.89-2.38-5.62a32.53,32.53,0,0,0-3.68-5.84c-.86-.87-2.38,0-1.94,1.08a37.65,37.65,0,0,0,3.46,5.84c1.08,1.51,2.16,3.89,3.89,4.75C246.5,34.57,246.72,34.57,246.72,34.14Z" transform="translate(0 0)"/><path class="cls-11" d="M261.64,30c.21-9.51.65-19.68-.44-29C261-.24,259-.46,259,1.06c-.65,9.51,0,19.46.65,29C259.91,31.33,261.64,31.33,261.64,30Z" transform="translate(0 0)"/><path class="cls-11" d="M272.88,34.57a80.78,80.78,0,0,0,6.7-10.81,1.11,1.11,0,1,0-1.94-1.08,93.1,93.1,0,0,0-6.27,11.24A.82.82,0,1,0,272.88,34.57Z" transform="translate(0 0)"/><path class="cls-11" d="M281.75,42.57c5-2.16,9.73-5,14.27-7.35,4.11-2.38,8.86-4.32,12.32-7.35.87-.65,0-1.95-1.08-1.73-4.54,1.51-8.65,4.32-12.76,6.7a113.67,113.67,0,0,0-13.83,8.43C280,41.71,280.67,43,281.75,42.57Z" transform="translate(0 0)"/><path class="cls-11" d="M287.8,55.11c3.46,1.3,9.52.44,12.33-2.38a1.16,1.16,0,0,0-1.08-1.94c-1.95.43-3.68,1.3-5.41,1.73-1.95.43-3.68.43-5.62.86C286.72,53.38,286.94,54.68,287.8,55.11Z" transform="translate(0 0)"/><path class="cls-11" d="M289.1,72.19c13.4,3.46,27.24,7.14,41.08,8.87,1.73.22,1.95-2.38.43-2.81-13.19-3.89-27.24-5.84-40.86-8.22C288.45,69.82,287.8,72,289.1,72.19Z" transform="translate(0 0)"/><path class="cls-12" d="M99,306.59c.44-3,.44-5.84,2-8.44,3.24-5.19,8-3.89,12.54-1.51s9.08,3.68,14,1.51c7.79-3.45,11.47-15.35,4.11-20.75-2.38-1.73-4.75,1.08-4.54,3.46.43,3.24,2,6.7-.65,9.51-3.67,3.68-8,.65-11.67-1.08a14.8,14.8,0,0,0-12.11-.43c-6.92,2.81-12.11,12.32-6.49,18.81A1.85,1.85,0,0,0,99,306.59Z" transform="translate(0 0)"/><path class="cls-3" d="M202.39,312.42a180.29,180.29,0,0,0,28.11-9.94c3.24-1.52,1.08-6.06-2.16-5A153.49,153.49,0,0,0,201.52,309C199.58,309.61,200.23,312.86,202.39,312.42Z" transform="translate(0 0)"/><path class="cls-13" d="M155.47,322.15q2.91,11,6.49,22.06c.64,1.73,2.16,2.38,3.67,1.3,5.84-4.11,11.89-8,17.52-12.54a2,2,0,0,0-.22-3.25c-6.49-4.54-15.57-11.24-23.78-11.24-2.17,0-3.68,3-1.52,4.32,3.46,1.95,7.35,2.6,11,4.11a62.53,62.53,0,0,1,11.89,6.27c0-1.29.22-2.38.22-3.67-6.27,3.89-12.11,8.21-18.17,12.54,1.08.22,2.38.43,3.46.65-2.59-7.14-5.19-14.49-8-21.41C157.63,319.78,155,320.64,155.47,322.15Z" transform="translate(0 0)"/><path class="cls-12" d="M168.44,396.11c9.73.65,20.11,1.08,29.84,0,3.68-.44,3.24-5.19-.43-5.41a165.36,165.36,0,0,0-29.19,1.73C166.71,392.86,166.28,395.89,168.44,396.11Z" transform="translate(0 0)"/><path class="cls-10" d="M22.92,127.77l5.41,66H149.85l6.7,23.13,7.13-25.51,23.14-1.3L176,131Z" transform="translate(0 0)"/><path class="cls-14" d="M38.92,152c41.73-1.73,83.47-1.73,125.2,2.17,1.51.21,1.51-2.17,0-2.38-41.73-3.25-83.47-4.54-125.2-2C37.62,150,37.62,152.2,38.92,152Z" transform="translate(0 0)"/><path class="cls-14" d="M41.3,165.17c41.73-1.73,83.46-1.73,125.2,2.17,1.51.21,1.51-2.17,0-2.38-41.74-3.25-83.47-4.54-125.2-2C40,163.23,40,165.17,41.3,165.17Z" transform="translate(0 0)"/><path class="cls-14" d="M41.52,176c28.11,1.08,55.78-1.3,83.89,1.29,1.52.22,1.52-2.16,0-2.38-28.11-1.94-55.78-.64-83.89-1.08C40.22,174,40.22,176,41.52,176Z" transform="translate(0 0)"/><path class="cls-14" d="M359.8,175.12s11.47,25.73,14.71,24.43,32.87-19.67,32.87-19.67-12.11-23.14-14.71-24.44C390.29,153.93,359.8,175.12,359.8,175.12Z" transform="translate(0 0)"/><path class="cls-5" d="M392.89,155.23c.43.21-3,10.81-7.79,23.57,0,.21-.21.21-.21.43l-.22.65-.65-.22c-13.41-2.16-24-4.32-23.78-4.76,0-.43,10.81.87,24.21,3l-1.08.65c0-.22.22-.22.22-.43C388.13,165.39,392.24,155.23,392.89,155.23Z" transform="translate(0 0)"/><path class="cls-5" d="M370.83,196.53c-.43,0,.22-4.33,1.73-9.52s3-9.3,3.46-9.08-.21,4.33-1.73,9.52S371.27,196.53,370.83,196.53Z" transform="translate(0 0)"/><path class="cls-5" d="M405.64,174.69c0,.43-4.32.21-9.29-.65s-9.08-1.95-9.08-2.38,4.32-.22,9.29.65S405.64,174.26,405.64,174.69Z" transform="translate(0 0)"/><path class="cls-12" d="M254.77,200.19c-.4-.72-1.83-2.66-3.52-3s-3.68,1.23-4.26,1.78l-2-2.07c.33-.32,3.38-3.14,6.76-2.54s5.44,4.25,5.53,4.4Z" transform="translate(0 0)"/><path class="cls-5" d="M296.07,200.85a3.67,3.67,0,0,0-2-1.64l-11.15.14,0,2.87,13.32.28C296.1,202.08,296.29,201.23,296.07,200.85Z" transform="translate(0 0)"/><path class="cls-12" d="M230.41,209.44h0a30.82,30.82,0,0,1-5.14-1.26c-9.86-3.35-7.56-14.51-6.8-18.18a8.37,8.37,0,0,1,2-3.88,10.15,10.15,0,0,1,4.2-2.47A16.19,16.19,0,0,1,229,183a41.55,41.55,0,0,1,6.84.32c.37,0,.76.1,1.17.16,7.11,1.08,10.86,3.76,11.18,8,.22,3-.64,6.28-1.4,9.16l-.19.71C245,207.67,238.89,210.72,230.41,209.44Zm6.19-23.15-1.1-.15a38.11,38.11,0,0,0-6.37-.3,13.42,13.42,0,0,0-3.59.55,7.38,7.38,0,0,0-3,1.7,5.57,5.57,0,0,0-1.29,2.49c-1.76,8.54-.25,13.12,4.91,14.87a27.22,27.22,0,0,0,4.65,1.15c9.56,1.44,12.25-3.16,13-6l.19-.72c.7-2.66,1.5-5.67,1.31-8.2C245.14,188.9,242.28,187.15,236.6,186.29Z" transform="translate(0 0)"/><path class="cls-12" d="M267.51,215.06c-8.47-1.29-13.36-6-13.06-12.59l0-.73c.13-3,.27-6.35,1.37-9.16,1.55-3.93,5.94-5.38,13-4.31l1.16.2a42.25,42.25,0,0,1,6.64,1.72,16.63,16.63,0,0,1,3.94,1.93,10.21,10.21,0,0,1,3.27,3.6,8.32,8.32,0,0,1,.78,4.31c-.36,3.73-1.47,15.07-11.88,15.35A30.76,30.76,0,0,1,267.51,215.06Zm.95-23.94c-5.68-.86-8.93,0-9.93,2.51-.93,2.36-1.06,5.48-1.18,8.23l0,.74c-.13,3,1.07,8.17,10.62,9.62a27.05,27.05,0,0,0,4.79.28c5.44-.14,8.25-4.07,9.09-12.75a5.56,5.56,0,0,0-.49-2.76,7.49,7.49,0,0,0-2.34-2.51,13.38,13.38,0,0,0-3.26-1.58,38.77,38.77,0,0,0-6.17-1.6C269.21,191.24,268.84,191.17,268.46,191.12Z" transform="translate(0 0)"/></svg>