<svg width="71" height="61" viewBox="0 0 71 61" fill="none" xmlns="http://www.w3.org/2000/svg">
<g id="Group4">
<path id="Vector" d="M69.019 60.6418L71 58.6615C67.4783 54.921 63.5163 55.1411 59.9946 55.3611C56.6929 55.5811 53.6114 55.5811 50.9701 52.7207C48.3288 49.8604 48.769 47 49.2092 43.6996C49.6495 40.1791 50.3098 36.2186 46.788 32.4781C43.2663 28.7377 39.3044 28.9577 35.7826 29.1777C32.2609 29.3977 29.3995 29.3978 26.7582 26.5374C24.1169 23.677 24.5571 20.8166 24.9973 17.5162C25.4375 13.9958 26.0978 10.0353 22.5761 6.2948C19.0544 2.55432 15.0924 2.77433 11.5707 2.77433C8.04892 2.99436 5.18751 2.99437 2.5462 0.134003L0.565224 1.89423C4.08696 5.63471 8.04892 5.41468 11.5707 5.41468C15.0924 5.19465 17.9538 5.19465 20.5951 8.05501C23.2364 10.9154 22.7962 13.7757 22.356 17.0762C21.9158 20.5966 21.2554 24.5571 24.7772 28.2976C28.2989 32.0381 32.2609 31.8181 35.7826 31.598C39.0842 31.378 42.1658 31.378 44.8071 34.2384C47.4484 37.0987 47.0082 39.9591 46.5679 43.2595C46.1277 46.78 45.4674 50.7405 48.9891 54.481C52.5109 58.2214 56.4728 58.0014 59.9946 57.7814C63.5163 57.7814 66.3777 57.7814 69.019 60.6418Z" fill="#EF635B"/>
</g>
</svg>
