<svg width="71" height="61" viewBox="0 0 71 61" fill="none" xmlns="http://www.w3.org/2000/svg">
<g id="Group3">
<path id="Vector" d="M68.7255 60.4979L70.7065 58.7377C67.1848 54.9972 63.2228 55.2172 59.7011 55.4373C56.3995 55.6573 53.3179 55.6573 50.6766 52.7969C48.0353 49.9366 48.4756 47.0762 48.9158 43.7758C49.356 40.2553 50.0163 36.2948 46.4946 32.5543C42.9728 28.8139 39.0109 29.0339 35.4891 29.2539C31.9674 29.4739 29.106 29.4739 26.4647 26.6136C23.8234 23.7532 24.2636 20.8928 24.7038 17.5924C25.144 14.072 25.8044 10.1114 22.2826 6.37097C18.7609 2.63049 14.7989 2.85052 11.2772 2.85052C7.75545 3.07055 4.89404 3.07056 2.25274 0.21019L0.271759 1.97041C3.7935 5.71089 7.75545 5.49087 11.2772 5.49087C14.7989 5.27084 17.6603 5.27084 20.3016 8.1312C22.9429 10.9916 22.5027 13.8519 22.0625 17.1524C21.6223 20.6728 20.962 24.6333 24.4837 28.3738C28.0054 32.1143 31.9674 31.8942 35.4891 31.6742C38.7908 31.4542 41.8723 31.4542 44.5136 34.3146C47.1549 37.1749 46.7147 40.0353 46.2745 43.3357C45.8343 46.8562 45.1739 50.8167 48.6957 54.5572C52.2174 58.2976 56.1794 58.0776 59.7011 57.8576C63.2228 57.6376 66.0842 57.6376 68.7255 60.4979Z" fill="#5ED19C"/>
</g>
</svg>
