<svg width="710" height="609" viewBox="0 0 710 609" fill="none" xmlns="http://www.w3.org/2000/svg">
<path d="M644 0L710 485.894L549.917 602H439.646L0.5 361L222.519 165L644 0Z" fill="url(#paint0_linear)"/>
<path d="M710 483L683.944 609H436V596.603L503.177 593.961L525.569 483H710Z" fill="#0E1F3D"/>
<path d="M710 483L683.944 609H436V596.603L503.177 593.961L525.569 483H710Z" fill="url(#paint1_linear)"/>
<g clip-path="url(#clip0)">
<path opacity="0.37" d="M595 548.604C595 557.134 602.533 564.208 612.102 564.208C621.467 564 629 557.134 629 548.604C629 539.866 621.467 533 611.898 533C602.533 533 595 539.866 595 548.604Z" fill="#FCF9DE"/>
<path d="M601.515 549.02C601.515 554.638 606.198 559.215 612.102 559.215C618.006 559.215 622.689 554.638 622.689 549.02C622.689 543.403 618.006 538.826 612.102 538.826C606.198 538.826 601.515 543.403 601.515 549.02Z" fill="#FCF9DE"/>
</g>
<g clip-path="url(#clip1)">
<path d="M256.924 307.55C262.867 307.55 267.709 302.709 267.709 296.989C267.709 291.048 262.867 286.427 256.924 286.427C250.981 286.427 246.139 291.268 246.139 296.989C246.359 302.709 250.981 307.55 256.924 307.55ZM256.924 291.268C260.226 291.268 262.647 293.908 262.647 296.989C262.647 300.069 260.005 302.709 256.924 302.709C253.622 302.709 251.201 300.069 251.201 296.989C251.201 293.688 253.842 291.268 256.924 291.268Z" fill="#EF635B"/>
<path d="M16.7854 189.175C22.7283 189.175 27.5707 184.334 27.5707 178.613C27.5707 172.673 22.7283 168.052 16.7854 168.052C10.8424 168.052 6 172.893 6 178.613C6 184.334 10.8424 189.175 16.7854 189.175ZM16.7854 172.673C20.087 172.673 22.5082 175.313 22.5082 178.393C22.5082 181.474 19.8669 184.114 16.7854 184.114C13.4837 184.114 11.0625 181.474 11.0625 178.393C10.8424 175.313 13.4837 172.673 16.7854 172.673Z" fill="#5ED19C"/>
<path d="M419.584 476.532C422.886 476.532 425.307 473.891 425.307 470.811C425.307 467.731 422.666 465.09 419.584 465.09C416.283 465.09 413.861 467.731 413.861 470.811C413.861 474.111 416.503 476.532 419.584 476.532ZM419.584 467.731C421.345 467.731 422.666 469.051 422.666 470.811C422.666 472.571 421.345 473.891 419.584 473.891C417.823 473.891 416.503 472.571 416.503 470.811C416.503 469.051 417.823 467.731 419.584 467.731Z" fill="#5ED19C"/>
<path d="M304.247 196.436C307.549 196.436 309.97 193.796 309.97 190.715C309.97 187.635 307.329 184.994 304.247 184.994C300.946 184.994 298.524 187.635 298.524 190.715C298.524 193.796 300.946 196.436 304.247 196.436ZM304.247 187.635C306.008 187.635 307.329 188.955 307.329 190.715C307.329 192.475 306.008 193.796 304.247 193.796C302.486 193.796 301.166 192.475 301.166 190.715C300.946 188.955 302.486 187.635 304.247 187.635Z" fill="#5ED19C"/>
<path d="M250.761 233.621L254.063 229.66L239.315 217.118L253.842 204.357L250.321 200.396L231.171 217.118L250.761 233.621Z" fill="#ADE2EB"/>
<path d="M220.59 467.224L223.891 463.264L209.144 450.722L223.671 437.961L220.149 434L201 450.722L220.59 467.224Z" fill="#ADE2EB"/>
<path d="M474.171 404.803L469.109 405.243L470.429 423.505L452.16 422.405L451.94 427.466L475.932 429.006L474.171 404.803Z" fill="#0E1F3D"/>
<path d="M195.514 281.147L192.212 281.587L193.092 293.248L181.427 292.588L181.207 295.669L196.614 296.769L195.514 281.147Z" fill="#FFCC5A"/>
<path d="M464.707 525.158L490.679 541L493.321 536.379L467.568 520.757L464.707 525.158Z" fill="#EF694B"/>
<path d="M190 177.762L198.144 178.202L197.704 185.903L203.867 186.123L204.307 178.422L212.451 178.862L212.671 173.361L204.527 172.921L204.967 165.22L198.804 165L198.364 172.701L190.22 172.261L190 177.762Z" fill="#0E1F3D"/>
<path d="M455.682 313.931L463.826 314.371L463.386 322.292L469.549 322.512L469.989 314.591L478.133 315.031L478.353 309.31L470.209 308.87L470.649 300.949L464.486 300.729L464.046 308.65L455.902 308.21L455.682 313.931Z" fill="#FFCC5A"/>
<path d="M381.726 368.498L383.707 366.738C380.185 362.997 376.223 363.217 372.701 363.437C369.399 363.657 366.318 363.657 363.677 360.797C361.035 357.937 361.476 355.076 361.916 351.776C362.356 348.255 363.016 344.295 359.495 340.554C355.973 336.814 352.011 337.034 348.489 337.254C344.967 337.474 342.106 337.474 339.465 334.614C336.823 331.753 337.264 328.893 337.704 325.592C338.144 322.072 338.804 318.111 335.283 314.371C331.761 310.63 327.799 310.851 324.277 310.851C320.755 311.071 317.894 311.071 315.253 308.21L313.272 309.97C316.793 313.711 320.755 313.491 324.277 313.491C327.799 313.271 330.66 313.271 333.302 316.131C335.943 318.992 335.503 321.852 335.063 325.152C334.622 328.673 333.962 332.633 337.484 336.374C341.005 340.114 344.967 339.894 348.489 339.674C351.791 339.454 354.872 339.454 357.514 342.315C360.155 345.175 359.715 348.035 359.274 351.336C358.834 354.856 358.174 358.817 361.696 362.557C365.217 366.298 369.179 366.078 372.701 365.858C376.223 365.638 379.084 365.638 381.726 368.498Z" fill="#5ED19C"/>
<path d="M382.386 236.921C382.386 236.921 382.386 237.581 382.606 238.461C382.826 239.341 383.266 240.882 384.147 242.422C385.687 245.502 389.649 249.463 394.932 250.563C400.435 251.663 405.277 249.683 408.139 247.482C409.459 246.382 410.56 245.282 411 244.402C411.66 243.522 411.88 243.082 411.66 243.082C411.44 242.862 410.34 244.842 407.478 246.822C404.837 248.803 399.995 250.563 394.932 249.463C389.87 248.363 386.348 244.842 384.587 241.982C382.826 238.901 382.606 236.701 382.386 236.921Z" fill="#F29680"/>
<path d="M134.543 98.7433L140.046 102.264L152.813 82.6812L170.421 97.8632L174.603 93.2426L151.492 73L134.543 98.7433Z" fill="#FFCC5A"/>
<path d="M279.563 441.243C275.196 441.914 271.111 438.919 270.439 434.552L264.506 395.986C263.835 391.619 266.83 387.534 271.197 386.863L309.763 380.93C314.13 380.258 318.215 383.253 318.886 387.62L324.819 426.186C325.491 430.553 322.496 434.638 318.129 435.31L279.563 441.243Z" fill="#FFD600"/>
<path d="M303.258 424.999C304.269 424.078 305.778 424.26 306.871 425.082C307.763 425.751 308.814 426.147 310.207 425.933C312.228 425.622 313.134 424.455 312.92 423.065C312.664 421.402 311.476 420.98 309.104 420.354L307.805 420.021C304.057 419.07 301.43 417.56 300.822 413.61C300.262 409.97 302.623 406.771 306.978 406.101C309.342 405.737 311.295 406.076 312.994 407.394C313.948 408.135 313.8 409.547 312.893 410.345V410.345C311.913 411.206 310.473 410.875 309.243 410.443C308.755 410.272 308.229 410.242 307.629 410.335C306.2 410.554 305.434 411.595 305.615 412.774C305.839 414.23 306.836 414.68 309.067 415.26L310.366 415.592C314.784 416.72 317.4 418.163 318.024 422.218C318.696 426.586 315.614 429.511 310.983 430.224C307.468 430.765 304.921 429.755 303.085 428.064C302.182 427.233 302.35 425.826 303.258 424.999V424.999Z" fill="#000001"/>
<path d="M285.697 427.761C286.749 426.871 288.292 427.163 289.549 427.727C290.161 428.001 290.842 428.114 291.594 427.999C293.193 427.753 294.015 426.98 293.638 424.525L291.564 411.047C291.35 409.657 292.304 408.356 293.694 408.143V408.143C295.085 407.929 296.385 408.882 296.599 410.273L298.791 424.524C299.574 429.61 296.98 432.378 292.672 433.041C289.74 433.492 287.192 432.352 285.463 430.791C284.546 429.963 284.754 428.558 285.697 427.761V427.761Z" fill="#000001"/>
<path d="M146.49 242.296C143.075 244.078 125.384 251.351 121.617 253.314C117.851 255.277 115.759 255.259 112.783 253.837C109.807 252.415 90.9806 244.811 87.5873 243.189C85.8907 242.378 85.0016 241.696 85.0016 241.051V234.582C85.0016 234.582 109.513 229.246 113.471 227.826C117.43 226.405 118.799 226.355 122.169 227.588C125.538 228.821 145.672 232.454 148.999 233.674V240.053C148.999 240.693 148.233 241.411 146.493 242.3L146.49 242.296Z" fill="#A41E11"/>
<path d="M146.49 235.825C143.075 237.607 125.384 244.88 121.617 246.843C117.851 248.806 115.759 248.788 112.783 247.366C109.807 245.944 90.9806 238.34 87.5873 236.718C84.194 235.096 84.1261 233.981 87.4567 232.676L113.47 222.605C117.426 221.187 118.797 221.134 122.167 222.367C125.536 223.601 143.12 230.6 146.446 231.838C149.771 233.077 149.902 234.061 146.487 235.842L146.49 235.825Z" fill="#D82C20"/>
<path d="M146.49 231.746C143.075 233.528 125.384 240.802 121.617 242.765C117.851 244.728 115.759 244.709 112.783 243.287C109.807 241.865 90.9806 234.261 87.5873 232.639C85.8907 231.828 85.0016 231.146 85.0016 230.501V224.032C85.0016 224.032 109.513 218.696 113.471 217.276C117.43 215.856 118.799 215.805 122.169 217.038C125.538 218.272 145.672 221.904 148.999 223.124V229.504C148.999 230.143 148.233 230.861 146.493 231.75L146.49 231.746Z" fill="#A41E11"/>
<path d="M146.49 225.277C143.075 227.059 125.384 234.332 121.617 236.295C117.851 238.258 115.759 238.24 112.783 236.818C109.807 235.396 90.9806 227.792 87.5873 226.17C84.194 224.548 84.1261 223.433 87.4567 222.128L113.47 212.059C117.426 210.638 118.797 210.588 122.167 211.821C125.536 213.054 143.12 220.055 146.449 221.271C149.778 222.488 149.905 223.494 146.49 225.275V225.277Z" fill="#D82C20"/>
<path d="M146.49 220.806C143.075 222.588 125.384 229.862 121.617 231.826C117.851 233.791 115.759 233.771 112.783 232.349C109.807 230.927 90.9806 223.323 87.5873 221.701C85.8907 220.89 85.0016 220.208 85.0016 219.563V213.09C85.0016 213.09 109.513 207.754 113.471 206.334C117.43 204.914 118.799 204.863 122.169 206.096C125.538 207.33 145.672 210.962 148.999 212.182V218.562C148.999 219.201 148.233 219.919 146.493 220.808L146.49 220.806Z" fill="#A41E11"/>
<path d="M146.49 214.335C143.075 216.117 125.384 223.39 121.617 225.353C117.851 227.317 115.759 227.298 112.783 225.876C109.807 224.454 90.9806 216.85 87.5873 215.228C84.194 213.606 84.1261 212.491 87.4567 211.186L113.47 201.117C117.426 199.697 118.797 199.646 122.167 200.879C125.536 202.113 143.12 209.113 146.449 210.33C149.778 211.546 149.905 212.552 146.49 214.334V214.335Z" fill="#D82C20"/>
<path d="M118.597 211.668L116.592 208.334L110.188 207.757L114.966 206.034L113.533 203.387L118.005 205.134L122.223 203.753L121.083 206.488L125.382 208.1L119.837 208.677L118.597 211.668ZM107.915 218.306L122.744 216.029L118.265 222.598L107.915 218.306Z" fill="white"/>
<path d="M103.918 215.912C108.295 215.912 111.844 214.536 111.844 212.839C111.844 211.142 108.295 209.766 103.918 209.766C99.5398 209.766 95.9908 211.142 95.9908 212.839C95.9908 214.536 99.5398 215.912 103.918 215.912Z" fill="white"/>
<path d="M140.715 212.391L131.943 215.856L131.936 208.921L140.715 212.391Z" fill="#7A0C00"/>
<path d="M131.945 215.856L130.994 216.229L122.23 212.764L131.94 208.923L131.945 215.856Z" fill="#AD2115"/>
<g clip-path="url(#clip2)">
<path d="M407.659 195.622L391.652 142.819L444.333 131.841L450.743 186.649L430.436 197.114L407.659 195.622Z" fill="#E34E26"/>
<path d="M418.909 141.728L429.497 192.541L445.917 184.079L440.442 137.241L418.909 141.728Z" fill="#EF662A"/>
<path d="M403.757 151.771L409.693 171.355L432.565 166.59L433.581 175.309L426.632 178.834L418.867 178.378L417.231 172.984L410.607 174.364L413.761 184.761L428.06 185.699L440.812 179.125L438.405 158.488L414.354 163.5L412.342 156.868L437.575 151.61L437.595 151.606L436.811 144.884L403.757 151.771Z" fill="white"/>
<path d="M420.284 148.327L403.757 151.771L409.693 171.355L424.442 168.282L423.067 161.684L414.354 163.5L412.342 156.868L421.659 154.927L420.284 148.327Z" fill="#EBEBEB"/>
<path d="M426.639 178.829L426.632 178.834L418.867 178.378L417.231 172.984L410.607 174.364L413.761 184.761L428.06 185.699L428.07 185.694L426.639 178.829Z" fill="#EBEBEB"/>
</g>
<g clip-path="url(#clip3)">
<path fill-rule="evenodd" clip-rule="evenodd" d="M172.068 377.233C171.907 377.217 171.654 377.505 171.6 377.687C171.205 378.89 170.209 382.094 169.553 384.277C169.535 384.337 169.589 384.486 169.681 384.514C170.129 384.681 171.219 385.042 172.165 385.326C173.477 385.72 174.294 385.768 174.776 385.715C176.038 385.499 176.912 384.472 177.304 383.169C178.188 380.229 176.45 378.483 173.368 377.557C173.164 377.463 172.554 377.28 172.068 377.233V377.233ZM175.869 393.149C176.771 390.148 175.044 387.811 171.017 386.6C170.834 386.545 169.561 386.13 169.238 386.099C169.137 386.102 168.997 386.126 168.97 386.217C168.323 388.369 167.263 391.785 166.954 393.147C166.841 393.741 167.023 394.688 167.469 395.086C167.927 395.554 169.16 395.991 170.014 396.247C172.424 396.972 174.931 396.271 175.869 393.149V393.149ZM166.345 373.695C166.65 373.787 167.538 374.153 169.888 374.859C172.115 375.528 173.903 376 176.069 376.651C178.724 377.448 182.103 379.488 180.919 383.429C180.336 385.369 178.498 386.502 176.47 386.719C176.37 386.722 176.352 386.783 176.434 386.84C178.805 388.247 180.59 390.502 179.697 393.472C178.823 396.383 176.436 397.682 173.435 398.036C171.609 398.247 169.522 397.884 167.478 397.27C165.921 396.802 161.796 395.364 159.459 394.728C159.242 394.564 160.028 393.61 160.296 393.492C160.854 393.627 161.29 393.725 161.925 393.717C162.813 393.753 162.977 393.538 163.472 392.332C163.852 391.289 164.982 387.53 165.784 384.863C166.886 381.195 167.663 378.718 167.997 377.497C168.249 376.548 168.005 376.144 167.388 375.76C166.896 375.513 166.079 375.135 165.404 374.834C165.297 374.636 166.125 373.761 166.345 373.695ZM143.073 387.259C143.633 388.055 144.994 388.728 146.275 389.113C147.923 389.608 149.661 389.801 151.677 388.853C153.731 387.884 155.534 385.98 156.609 382.403C157.638 378.977 157.164 375.794 154.971 373.351C153.728 371.952 151.893 370.972 149.635 370.293C148.964 370.092 148.314 369.929 147.863 369.992C147.753 370.025 147.458 370.234 147.412 370.385C147.169 370.973 145.766 375.641 144.946 378.369C144.099 381.188 142.915 385.129 142.839 385.602C142.703 386.057 142.706 386.818 143.073 387.259L143.073 387.259ZM141.813 366.323C142.393 366.497 144.592 367.257 145.66 367.578C147.583 368.156 148.983 368.478 152.614 369.569C155.665 370.486 157.983 372.074 159.349 374.17C161.002 376.75 161.369 379.736 160.404 382.948C159.028 387.526 156.13 389.53 153.569 390.413C151 391.327 147.98 391.411 144.075 390.237C142 389.613 138.448 388.48 135.497 387.56L135.467 387.551C135.396 387.232 136.112 386.291 136.365 386.334C137.186 386.481 137.408 386.515 137.85 386.483C138.564 386.433 138.786 386.136 139.215 385.042C139.935 382.978 140.661 380.453 141.517 377.603C142.127 375.573 143.351 371.61 143.672 370.319C143.9 369.231 143.524 368.82 142.663 368.363C142.233 368.135 141.659 367.83 140.832 367.483C140.774 367.233 141.605 366.459 141.812 366.323L141.813 366.323Z" fill="#8E714E"/>
<path fill-rule="evenodd" clip-rule="evenodd" d="M98.8712 375.264C98.1358 374.944 97.6229 374.658 97.0428 374.153C96.9695 374.065 96.9077 373.716 96.9443 373.595C97.2023 372.515 98.1132 369.484 98.7234 367.454C99.2154 365.816 99.3691 364.309 98.9677 363.098C98.4901 361.698 97.5007 360.674 95.9747 360.216C94.6323 359.812 92.5587 360.18 90.6809 361.004C90.6414 361.025 90.3335 361.165 90.4642 360.84C90.5644 360.507 90.826 359.858 90.9931 359.412C91.1514 358.997 90.9707 358.712 90.9707 358.712C89.8486 358.903 86.9113 358.715 85.8769 358.503C85.0992 358.435 84.7065 359.077 85.3968 359.549L85.4272 359.558C86.1777 360.047 86.6452 360.486 86.99 360.887C87.2224 361.221 87.0917 361.545 87.0097 361.818C86.357 364.1 85.3094 367.587 84.6442 369.469C84.386 370.218 84.0905 370.426 83.5046 370.382L83.5748 370.37C83.1203 370.333 82.7574 370.323 82.2204 370.228C81.9825 370.355 81.691 371.325 81.8104 371.592C82.146 371.693 83.943 372.133 85.4081 372.574C87.4217 373.179 88.4319 373.582 88.9504 373.737C89.2368 373.559 89.5713 372.668 89.5131 372.419C88.9422 372.215 88.5332 372.026 88.1733 371.785C87.6606 371.499 87.5897 371.18 87.7502 370.535C88.1726 368.909 89.1928 365.515 89.8851 363.211C90.0764 362.574 90.3504 362.326 90.5879 362.199C91.472 361.804 92.7287 361.719 93.7355 362.021C94.7119 362.315 95.2613 362.811 95.6312 363.351C96.1385 364.098 96.1152 364.951 96.0338 365.554C95.7945 366.904 94.9593 369.462 94.2852 371.705C93.9209 372.918 93.7382 373.193 93.2354 373.207C92.9941 373.234 92.4084 373.19 91.7495 373.058C91.4721 373.206 91.2508 374.164 91.3395 374.422C92.2243 374.688 93.2892 374.909 94.8148 375.368C96.7064 375.936 97.8998 376.394 98.3882 376.541C98.595 376.404 98.9203 375.544 98.8712 375.264V375.264ZM110.803 366.225C109.186 365.739 107.805 366.679 107.223 368.619C106.63 370.59 106.832 373.129 109.334 373.881C109.761 374.009 110.609 374.066 111.103 373.751C111.846 373.38 112.571 372.408 112.917 371.256C113.673 368.74 112.878 366.849 110.803 366.225L110.803 366.225ZM106.563 379.559C105.953 379.376 105.471 379.429 105.151 379.498C103.623 379.931 102.807 380.545 102.524 381.486C102.26 382.364 102.386 383.162 102.937 383.989C103.594 385.012 104.705 385.743 106.261 386.211C109.373 387.146 111.247 385.891 111.739 384.255C112.085 383.102 111.733 382.17 110.671 381.389C109.926 380.768 108.425 380.118 106.563 379.559V379.559ZM104.408 387.505C102.547 386.945 101.323 386.148 100.427 384.92C99.5534 383.732 99.448 382.312 99.7122 381.433C99.785 381.191 100.047 380.542 100.778 380.101C101.223 379.838 102.165 379.361 104.259 378.702C104.329 378.69 104.369 378.669 104.387 378.607C104.405 378.547 104.362 378.468 104.31 378.42C103.04 377.443 102.878 376.435 102.901 375.914L102.919 375.853C102.944 375.662 102.937 375.462 103.267 375.363C103.526 375.275 103.886 375.185 104.285 375.074C104.895 374.926 105.544 374.758 105.962 374.586C106.041 374.544 106.059 374.483 106.077 374.423C106.096 374.362 106.053 374.283 106 374.234C104.075 372.895 103.48 370.998 104.191 368.634C104.656 367.088 105.776 365.904 107.291 365.401C108.346 364.991 110.728 364.814 112.132 365.236L112.223 365.264C113.648 365.725 114.35 366.266 115.361 367C115.907 367.395 116.46 367.66 117.253 367.899C118.443 368.256 119.071 368.049 119.625 367.753C119.638 367.822 119.654 367.993 119.566 368.396C119.478 368.799 119.183 369.338 118.75 369.671C118.406 369.931 117.783 370.009 117.234 369.844L117.082 369.798C116.551 369.572 116.325 369.438 116.325 369.438L116.185 369.462C116.136 369.513 116.148 369.583 116.151 369.683L116.164 369.753C116.143 370.044 116.019 370.899 115.955 371.112C115.208 373.597 113.873 374.385 112.559 374.883C111.294 375.329 109.959 375.456 108.579 375.174C108.549 375.165 108.427 375.129 108.143 375.076C107.991 375.031 107.768 374.997 107.737 374.988L107.707 374.978C107.444 374.966 106.743 375.085 106.589 375.601C106.452 376.055 106.562 376.684 107.847 377.169C108.112 377.282 108.387 377.364 108.683 377.486C110.386 378.13 112.507 378.933 113.413 379.569C114.662 380.506 115.173 382.014 114.727 383.5C114.053 385.743 111.807 387.349 108.731 387.845C107.246 388.027 105.842 387.936 104.408 387.505V387.505ZM128.149 371.603C127.509 371.411 126.884 371.388 126.365 371.563C124.957 371.933 123.909 373.204 123.272 375.326C122.078 379.297 123.254 382.691 126.122 383.553C126.976 383.81 127.721 383.769 128.446 383.458C129.55 382.996 130.445 381.679 131.055 379.648C132.239 375.708 131.048 372.474 128.15 371.603L128.149 371.603ZM124.8 384.742C119.613 383.183 118.89 378.835 119.956 375.288C120.703 372.803 122.284 371.196 124.707 370.436C126.406 369.989 128.26 370.017 129.786 370.476C133.753 371.668 135.682 375.321 134.461 379.383C133.633 382.141 131.878 383.994 129.372 384.695C128.165 385.059 126.234 385.173 124.8 384.742L124.8 384.742V384.742ZM74.3255 355.428C73.6847 355.236 73.0596 355.213 72.541 355.388C71.1327 355.758 70.085 357.029 69.4474 359.151C68.2539 363.122 69.4295 366.516 72.2978 367.378C73.1522 367.635 73.8964 367.594 74.6221 367.283C75.7253 366.821 76.6204 365.504 77.2308 363.473C78.415 359.533 77.2547 356.308 74.3255 355.428ZM70.9758 368.567C65.7887 367.008 65.0661 362.66 66.1319 359.113C66.8789 356.628 68.4596 355.021 70.8832 354.262C72.5817 353.814 74.4362 353.842 75.9618 354.301C79.9286 355.493 81.8579 359.146 80.6372 363.208C79.8083 365.966 78.054 367.819 75.5476 368.52C74.3708 368.893 72.4403 369.007 70.9758 368.567ZM36.191 357.783C36.1571 357.674 36.178 357.383 36.3089 357.059C36.3819 356.816 36.4885 356.683 36.5371 356.632C37.2054 356.733 37.5683 356.743 37.9616 356.762C38.6176 356.794 38.9617 356.534 39.2198 355.785C39.8583 353.994 40.8969 350.538 41.5858 348.134L41.604 348.074C41.686 347.801 41.7863 347.467 41.5235 347.124C41.1261 346.674 40.6285 346.227 39.9296 345.785C39.6823 345.613 39.5448 345.406 39.6298 345.233C39.6845 345.051 39.9314 344.894 40.3464 344.953C41.3806 345.164 44.1955 345.316 45.3698 345.173C45.4128 345.252 45.4496 345.462 45.3767 345.704L45.2462 346.028C45.1152 346.353 44.9663 346.738 44.8479 347.132C44.8115 347.253 44.9065 347.381 45.0282 347.417C45.0894 347.436 45.1596 347.424 45.2296 347.411C47.6379 346.483 49.5715 346.469 50.4867 346.744C51.9822 347.193 52.9322 348.239 53.3798 349.96C53.4132 350.069 53.4653 350.118 53.5569 350.146C53.6177 350.164 53.7181 350.161 53.7671 350.11C55.9774 349.286 58.0238 349.009 59.2135 349.366C62.0511 350.219 63.1008 352.815 62.035 356.362C61.7344 357.362 61.3427 358.666 60.9569 359.839C60.6382 360.9 60.3163 361.86 60.1067 362.558C60.0613 362.709 60.1287 363.258 60.437 363.45C60.8004 363.791 61.353 364.056 62.0794 364.406L62.1098 364.415C62.1072 364.646 61.7484 365.397 61.5808 365.513C61.3976 365.457 61.1229 365.375 60.8271 365.253C60.0667 364.981 59.2995 364.728 58.5262 364.495C56.6346 363.927 55.6491 363.664 54.6845 363.44C54.6969 363.179 54.8848 362.443 55.0307 362.288C55.6075 362.363 55.9094 362.354 56.2725 362.364C56.9376 362.365 57.1721 362.138 57.4396 361.36C57.6127 360.784 59.2101 355.909 59.3822 354.672C59.5637 353.405 59.0763 351.705 57.0623 351.1C56.2995 350.871 55.0187 350.816 53.5951 351.346C53.516 351.389 53.409 351.522 53.3817 351.613L53.3725 351.643C53.3036 352.316 53.0848 353.044 52.7478 354.166L52.1558 356.136C51.7458 357.5 51.3324 358.764 51.0718 359.743C50.8713 360.41 51.2226 360.681 51.5216 360.903C51.6958 360.988 51.8083 361.055 51.952 361.132C52.2082 361.275 52.4647 361.418 52.8646 361.637C52.8893 361.777 52.7709 362.171 52.5791 362.477C52.4937 362.65 52.4053 362.722 52.3657 362.743C51.3375 362.401 50.2787 362.05 48.7227 361.582C48.2651 361.445 47.4624 361.237 46.7911 361.035C46.2416 360.87 45.7141 360.744 45.4092 360.653C45.3967 360.583 45.3992 360.352 45.4995 360.019C45.5815 359.746 45.7064 359.552 45.7858 359.51C45.9473 359.525 46.0784 359.532 46.2312 359.578C46.6151 359.627 46.9389 359.658 47.2619 359.689C47.8266 359.694 48.0914 359.476 48.3223 358.818C48.8693 357.33 50.2635 353.023 50.378 351.867C50.5402 349.999 49.7976 348.817 48.1801 348.331C47.2344 348.047 45.9075 348.144 44.7127 348.579C44.5236 348.654 44.3105 348.92 44.2285 349.193L43.691 350.981C43.0352 353.164 42.2152 355.892 41.8904 357.084C41.812 357.456 41.806 357.917 42.4625 358.28C42.6061 358.356 42.8319 358.49 43.1279 358.612L43.6495 358.868C43.6563 359.068 43.4069 359.787 43.2121 359.992C42.9069 359.901 42.5499 359.761 42.1224 359.632C41.4911 359.409 40.6763 359.131 39.761 358.856C38.693 358.535 37.9212 358.336 37.3016 358.183C36.8927 357.994 36.5571 357.893 36.191 357.783V357.783Z" fill="#442D22"/>
<path fill-rule="evenodd" clip-rule="evenodd" d="M17.9548 360.235L16.8316 359.435C16.8316 359.435 18.8882 353.145 16.7361 352.003C15.7392 349.786 39.3901 277.507 22.5457 353.484C22.5457 353.484 20.3715 353.855 19.553 355.361C18.7129 356.828 17.9548 360.235 17.9548 360.235V360.235Z" fill="white"/>
<path fill-rule="evenodd" clip-rule="evenodd" d="M17.9548 360.235L16.8316 359.435C16.8316 359.435 18.8882 353.145 16.7361 352.003C15.7392 349.786 39.3901 277.507 22.5457 353.484C22.5457 353.484 20.3715 353.855 19.553 355.361C18.7129 356.828 17.9548 360.235 17.9548 360.235V360.235Z" fill="#A6A385"/>
<path fill-rule="evenodd" clip-rule="evenodd" d="M20.4665 354.314C20.4665 354.314 33.5707 350.452 35.48 334.798C36.2607 323.234 31.4985 317.936 31.2677 316.379C30.8576 315.198 30.6961 313.299 30.6961 313.299L22.1085 343.537C22.0993 343.567 18.3932 352.468 20.4667 354.314" fill="white"/>
<path fill-rule="evenodd" clip-rule="evenodd" d="M20.4665 354.314C20.4665 354.314 33.5707 350.452 35.48 334.798C36.2607 323.234 31.4985 317.936 31.2677 316.379C30.8576 315.198 30.6961 313.299 30.6961 313.299L22.1085 343.537C22.0993 343.567 18.3932 352.468 20.4667 354.314" fill="#499D4A"/>
<path fill-rule="evenodd" clip-rule="evenodd" d="M17.7853 353.938C17.7853 353.938 9.59739 343.875 13.897 331.782C18.166 319.68 27.2407 315.83 28.9722 315.161C30.1793 314.466 30.3191 314.111 30.6718 313.159C30.9026 314.716 25.0598 333.716 24.4771 335.986C22.1553 344.708 18.9787 352.512 17.7853 353.938Z" fill="white"/>
<path fill-rule="evenodd" clip-rule="evenodd" d="M17.7853 353.938C17.7853 353.938 9.59739 343.875 13.897 331.782C18.166 319.68 27.2407 315.83 28.9722 315.161C30.1793 314.466 30.3191 314.111 30.6718 313.159C30.9026 314.716 25.0598 333.716 24.4771 335.986C22.1553 344.708 18.9787 352.512 17.7853 353.938Z" fill="#58AA50"/>
</g>
<g clip-path="url(#clip4)">
<path d="M284.931 243.502C280.468 256.912 297.7 274.723 323.418 283.283C349.137 291.842 373.605 287.909 378.069 274.498C382.532 261.088 365.3 243.277 339.581 234.717C313.863 226.158 289.395 230.091 284.931 243.502Z" fill="url(#paint2_radial)"/>
<path d="M324.018 281.48C348.732 289.705 372.117 286.308 376.249 273.893C380.381 261.478 363.696 244.745 338.981 236.52C314.267 228.295 290.882 231.692 286.751 244.107C282.619 256.522 299.304 273.255 324.018 281.48Z" fill="#777BB3"/>
<path d="M309.305 254.709C311.337 255.385 312.978 255.519 314.181 255.106C315.372 254.697 316.446 253.66 317.373 252.023C318.238 250.492 318.497 249.308 318.141 248.505C317.777 247.684 316.642 246.951 314.769 246.328L311.522 245.247L306.665 253.831L309.305 254.709ZM294.918 262.486C294.768 262.436 294.647 262.321 294.589 262.174C294.532 262.026 294.543 261.862 294.621 261.724L307.491 238.977C307.616 238.758 307.88 238.657 308.122 238.737L318.406 242.16C321.638 243.235 323.754 244.906 324.695 247.125C325.641 249.356 325.308 251.923 323.705 254.755C323.052 255.909 322.254 256.917 321.334 257.751C320.413 258.586 319.331 259.282 318.118 259.821C316.659 260.484 315.149 260.814 313.632 260.799C312.139 260.785 310.335 260.43 308.269 259.742L304.105 258.357L300.897 264.025C300.773 264.245 300.508 264.346 300.266 264.266L294.918 262.486Z" fill="black"/>
<path d="M311.772 245.886L314.603 246.829C316.863 247.581 317.485 248.334 317.654 248.716C317.935 249.35 317.677 250.403 316.908 251.763C316.047 253.284 315.07 254.241 314.005 254.607C312.915 254.981 311.39 254.847 309.472 254.208L307.445 253.534L311.772 245.886ZM318.572 241.659L308.289 238.236C307.805 238.075 307.276 238.277 307.027 238.717L294.157 261.464C294.001 261.738 293.978 262.068 294.093 262.363C294.208 262.657 294.45 262.886 294.752 262.987L300.1 264.766C300.583 264.927 301.112 264.726 301.361 264.286L304.354 258.996L308.102 260.243C310.221 260.949 312.081 261.313 313.631 261.327C315.223 261.343 316.808 260.998 318.341 260.301C319.604 259.74 320.732 259.014 321.694 258.143C322.656 257.271 323.489 256.219 324.169 255.016C325.856 252.035 326.198 249.311 325.185 246.922C324.181 244.556 321.957 242.785 318.572 241.659ZM305.885 254.127L309.138 255.21C311.294 255.928 313.034 256.059 314.358 255.605C315.681 255.151 316.84 254.044 317.837 252.283C318.793 250.593 319.056 249.263 318.628 248.294C318.198 247.325 316.968 246.503 314.936 245.827L311.272 244.607L305.885 254.127V254.127ZM318.239 242.661C321.333 243.69 323.322 245.246 324.205 247.328C325.087 249.41 324.767 251.798 323.241 254.495C322.612 255.605 321.857 256.561 320.974 257.36C320.091 258.161 319.067 258.82 317.899 259.338C316.501 259.973 315.08 260.284 313.635 260.27C312.189 260.258 310.457 259.914 308.435 259.241L303.855 257.717L300.433 263.765L295.085 261.985L307.955 239.238L318.239 242.661" fill="white"/>
<path d="M332.933 267.951C332.782 267.901 332.661 267.786 332.604 267.639C332.546 267.492 332.558 267.327 332.635 267.19L338.33 257.125C338.871 256.168 339.066 255.416 338.879 255.009C338.764 254.76 338.336 254.264 336.756 253.738L332.932 252.465L325.774 265.118C325.649 265.338 325.385 265.439 325.143 265.358L319.837 263.593C319.686 263.542 319.566 263.428 319.508 263.281C319.45 263.133 319.462 262.968 319.54 262.831L332.41 240.084C332.534 239.864 332.799 239.764 333.041 239.844L338.347 241.61C338.497 241.66 338.618 241.774 338.676 241.922C338.733 242.069 338.722 242.234 338.644 242.371L335.538 247.862L339.651 249.231C342.785 250.273 344.728 251.528 345.591 253.067C346.47 254.636 346.252 256.605 344.943 258.919L338.954 269.505C338.829 269.725 338.565 269.825 338.323 269.745L332.933 267.951Z" fill="black"/>
<path d="M338.513 241.109L333.208 239.343C332.724 239.182 332.195 239.384 331.946 239.824L319.076 262.57C318.92 262.845 318.897 263.175 319.012 263.469C319.127 263.764 319.369 263.993 319.671 264.093L324.976 265.859C325.46 266.02 325.989 265.819 326.238 265.379L333.182 253.105L336.59 254.239C338.167 254.764 338.387 255.208 338.395 255.226C338.457 255.36 338.425 255.875 337.865 256.864L332.171 266.929C332.016 267.203 331.993 267.533 332.108 267.828C332.223 268.123 332.465 268.351 332.766 268.452L338.156 270.246C338.64 270.407 339.169 270.205 339.418 269.765L345.407 259.18C346.812 256.695 347.03 254.553 346.055 252.812C345.124 251.152 343.084 249.817 339.818 248.73L336.318 247.565L339.108 242.632C339.264 242.357 339.287 242.028 339.172 241.733C339.057 241.438 338.815 241.209 338.513 241.109ZM338.18 242.111L334.758 248.158L339.485 249.731C342.459 250.721 344.339 251.918 345.126 253.322C345.913 254.726 345.696 256.505 344.478 258.659L338.49 269.244L333.1 267.45L338.794 257.385C339.442 256.241 339.631 255.376 339.363 254.791C339.094 254.207 338.28 253.689 336.923 253.237L332.683 251.826L325.31 264.857L320.004 263.092L332.874 240.345L338.18 242.111Z" fill="white"/>
<path d="M351.045 268.601C353.078 269.277 354.718 269.41 355.922 268.998C357.113 268.589 358.186 267.552 359.113 265.914C359.979 264.384 360.237 263.2 359.881 262.396C359.517 261.575 358.383 260.843 356.51 260.219L353.262 259.138L348.406 267.722L351.045 268.601ZM336.659 276.377C336.508 276.327 336.387 276.213 336.33 276.065C336.272 275.918 336.284 275.753 336.361 275.616L349.232 252.869C349.356 252.649 349.621 252.548 349.863 252.629L360.146 256.051C363.378 257.127 365.494 258.797 366.435 261.017C367.381 263.247 367.048 265.814 365.445 268.647C364.792 269.801 363.995 270.809 363.075 271.643C362.153 272.478 361.071 273.174 359.858 273.712C358.4 274.375 356.889 274.705 355.373 274.69C353.88 274.677 352.075 274.322 350.009 273.634L345.845 272.248L342.638 277.917C342.513 278.137 342.249 278.238 342.007 278.157L336.659 276.377Z" fill="black"/>
<path d="M353.512 259.778L356.343 260.72C358.604 261.472 359.225 262.225 359.394 262.607C359.675 263.241 359.417 264.295 358.649 265.654C357.787 267.176 356.811 268.133 355.746 268.498C354.655 268.872 353.13 268.738 351.212 268.1L349.185 267.425L353.512 259.778ZM360.313 255.55L350.029 252.128C349.546 251.967 349.017 252.168 348.768 252.608L335.897 275.355C335.742 275.63 335.719 275.959 335.834 276.254C335.949 276.549 336.19 276.778 336.492 276.878L341.84 278.658C342.324 278.819 342.853 278.618 343.102 278.178L346.095 272.888L349.842 274.135C351.962 274.84 353.822 275.205 355.371 275.219C356.964 275.234 358.549 274.889 360.082 274.193C361.345 273.632 362.473 272.906 363.434 272.034C364.396 271.163 365.229 270.111 365.91 268.908C367.597 265.926 367.939 263.203 366.925 260.813C365.922 258.448 363.697 256.677 360.313 255.55ZM347.626 268.019L350.879 269.102C353.035 269.819 354.775 269.951 356.098 269.497C357.422 269.043 358.581 267.936 359.577 266.175C360.533 264.484 360.797 263.154 360.368 262.186C359.938 261.217 358.708 260.394 356.676 259.718L353.012 258.499L347.626 268.019ZM359.979 256.552C363.073 257.582 365.062 259.138 365.945 261.219C366.828 263.301 366.507 265.69 364.981 268.386C364.353 269.497 363.597 270.452 362.715 271.252C361.832 272.052 360.807 272.711 359.639 273.23C358.242 273.865 356.82 274.176 355.375 274.162C353.929 274.149 352.197 273.806 350.176 273.133L345.595 271.609L342.174 277.656L336.826 275.876L349.696 253.13L359.979 256.552" fill="white"/>
</g>
<path d="M348.843 104.737V119.452H347V116.931C345.331 118.944 343.423 119.951 341.278 119.951C339.132 119.951 337.317 119.185 335.831 117.651C334.364 116.099 333.63 114.261 333.63 112.136C333.63 109.993 334.373 108.164 335.859 106.649C337.344 105.116 339.123 104.349 341.195 104.349C343.579 104.349 345.514 105.374 347 107.425V104.737H348.843ZM347.11 112.164C347.11 110.483 346.55 109.069 345.432 107.924C344.313 106.76 342.937 106.178 341.305 106.178C339.691 106.178 338.325 106.779 337.206 107.979C336.088 109.162 335.528 110.566 335.528 112.192C335.528 113.818 336.097 115.231 337.234 116.432C338.371 117.614 339.728 118.205 341.305 118.205C342.901 118.205 344.267 117.633 345.404 116.487C346.541 115.342 347.11 113.901 347.11 112.164" fill="#A57242"/>
<path d="M353.043 119.452V99.5547H357.142C359.948 99.5548 362.002 99.7672 363.304 100.192C364.625 100.599 365.762 101.254 366.715 102.16C367.669 103.047 368.402 104.137 368.916 105.43C369.429 106.723 369.686 108.238 369.686 109.975C369.686 111.693 369.283 113.319 368.476 114.852C367.687 116.367 366.605 117.513 365.23 118.289C363.873 119.065 361.91 119.452 359.343 119.452H353.043V119.452ZM354.941 117.568H357.225C359.609 117.568 361.333 117.448 362.396 117.208C363.478 116.968 364.423 116.496 365.23 115.794C366.037 115.074 366.651 114.206 367.073 113.189C367.495 112.173 367.706 111.009 367.706 109.698C367.706 108.386 367.458 107.176 366.963 106.067C366.486 104.959 365.798 104.044 364.9 103.324C364.001 102.603 362.937 102.123 361.709 101.883C360.498 101.624 358.71 101.495 356.344 101.495H354.941V117.568" fill="#A57242"/>
<path d="M327.576 100.636C327.576 100.211 327.722 99.8411 328.016 99.527C328.328 99.213 328.694 99.0559 329.116 99.0559C329.556 99.0559 329.923 99.213 330.216 99.527C330.528 99.8226 330.684 100.192 330.684 100.636C330.684 101.06 330.528 101.43 330.216 101.744C329.923 102.04 329.556 102.187 329.116 102.187C328.694 102.187 328.328 102.03 328.016 101.716C327.722 101.402 327.576 101.042 327.576 100.636ZM328.181 104.737H330.079V119.452H328.181V104.737Z" fill="#A57242"/>
<path d="M275.257 119.452L278.063 99.5547H278.366L286.398 115.878L294.376 99.5547H294.678L297.512 119.452H295.559L293.633 105.208L286.646 119.452H286.151L279.081 105.097L277.155 119.452H275.257Z" fill="#A57242"/>
<path d="M315.575 104.737V119.452H313.731V116.931C312.063 118.944 310.155 119.951 308.01 119.951C305.864 119.951 304.048 119.185 302.563 117.651C301.096 116.099 300.362 114.261 300.362 112.136C300.362 109.993 301.105 108.164 302.591 106.649C304.076 105.116 305.855 104.349 307.927 104.349C310.311 104.349 312.246 105.374 313.731 107.425V104.737H315.575ZM313.842 112.164C313.841 110.483 313.282 109.069 312.164 107.924C311.045 106.76 309.669 106.178 308.037 106.178C306.423 106.178 305.057 106.779 303.938 107.979C302.82 109.162 302.26 110.566 302.26 112.192C302.26 113.818 302.829 115.231 303.966 116.432C305.103 117.614 306.46 118.205 308.037 118.205C309.633 118.205 310.999 117.633 312.136 116.487C313.273 115.342 313.841 113.901 313.842 112.164" fill="#A57242"/>
<path d="M318.758 104.737H320.683V106.871C321.197 106.003 321.692 105.365 322.169 104.959C322.664 104.552 323.205 104.349 323.792 104.349C324.397 104.349 325.002 104.515 325.607 104.848L324.617 106.455C324.342 106.289 324.058 106.206 323.764 106.206C323.196 106.206 322.655 106.501 322.141 107.093C321.646 107.684 321.279 108.451 321.041 109.393C320.802 110.317 320.683 112.007 320.683 114.464V119.452H318.758V104.737Z" fill="#A57242"/>
<path d="M373.805 99.5547H377.711C379.784 99.5548 381.352 99.9797 382.415 100.83C383.497 101.661 384.038 102.862 384.038 104.432C384.038 105.301 383.818 106.104 383.378 106.843C382.956 107.564 382.333 108.146 381.507 108.589C382.865 109.033 383.892 109.698 384.588 110.584C385.304 111.471 385.661 112.524 385.661 113.744C385.661 115.388 385.065 116.755 383.873 117.845C382.681 118.917 381.141 119.452 379.252 119.452H373.805V99.5547V99.5547ZM375.758 101.495V107.869H376.886C378.61 107.869 379.894 107.591 380.737 107.037C381.581 106.483 382.003 105.615 382.003 104.432C382.003 102.474 380.682 101.495 378.041 101.495H375.758V101.495ZM375.758 109.864V117.513H378.206C379.619 117.513 380.655 117.374 381.315 117.097C381.993 116.801 382.544 116.358 382.965 115.767C383.387 115.157 383.598 114.538 383.598 113.91C383.598 113.282 383.479 112.728 383.24 112.247C383.002 111.767 382.644 111.342 382.168 110.972C381.709 110.603 381.15 110.326 380.49 110.141C379.848 109.956 378.637 109.864 376.859 109.864H375.758Z" fill="#A57242"/>
<path fill-rule="evenodd" clip-rule="evenodd" d="M278.63 75.3578C277.33 75.3997 277.741 75.7771 274.932 76.4737C272.094 77.1771 268.628 76.9614 265.573 78.2523C256.452 82.1058 254.622 95.2763 246.331 99.9943C240.133 103.521 233.88 103.802 228.258 105.577C224.564 106.744 220.522 109.138 217.175 112.044C214.577 114.3 214.509 116.284 211.794 119.114C208.89 122.141 200.253 119.165 196.339 123.798C197.6 125.083 198.153 125.443 200.638 125.109C200.123 126.092 197.09 126.92 197.684 128.365C198.309 129.885 205.641 130.916 212.306 126.862C215.41 124.974 217.882 122.253 222.717 121.604C228.972 120.764 236.179 122.142 243.421 123.195C242.347 126.42 240.191 128.565 238.464 131.134C237.929 131.714 239.538 131.779 241.374 131.429C244.676 130.606 247.056 129.944 249.548 128.483C252.609 126.687 253.073 122.084 256.829 121.088C258.922 124.329 264.614 125.094 268.147 122.502C265.047 121.618 264.191 114.972 265.237 112.044C266.228 109.272 267.207 104.837 268.205 101.173C269.276 97.2372 269.672 92.2769 270.969 90.2722C272.92 87.2562 275.075 86.2205 276.947 84.5197C278.818 82.819 280.531 81.1635 280.475 77.2719C280.457 76.0184 279.814 75.3197 278.63 75.3578V75.3578Z" fill="#002B64"/>
<path d="M199.031 128.088C203.777 128.772 206.664 128.088 210.475 126.422C213.718 125.005 216.85 122.084 220.68 120.846C226.305 119.028 232.473 120.848 238.485 121.211C239.949 121.3 241.404 121.301 242.84 121.143C245.08 119.757 245.033 114.569 247.213 114.094C247.149 121.372 244.187 125.733 241.09 129.955C247.618 128.794 251.525 124.99 254.163 119.909C254.964 118.369 255.647 116.712 256.252 114.975C257.186 115.697 256.656 117.896 257.126 119.087C261.623 116.563 264.198 110.805 265.903 104.981C267.875 98.2399 268.683 91.4145 269.955 89.4201C271.197 87.4734 273.129 86.2733 274.893 85.027C276.898 83.61 278.686 82.1332 278.994 79.4332C276.88 79.2362 276.391 78.7436 276.079 77.6703C275.021 78.2713 274.047 78.4 272.948 78.433C271.994 78.4622 270.946 78.4193 269.665 78.5517C259.078 79.6472 257.733 91.4027 250.947 98.0669C250.454 98.5515 249.92 99.0035 249.355 99.4278C246.979 101.212 244.063 102.487 241.382 103.519C237.043 105.19 232.917 105.309 228.845 106.751C225.856 107.809 222.819 109.344 220.364 111.037C219.75 111.46 219.172 111.893 218.64 112.331C217.199 113.518 216.253 114.836 215.339 116.191C214.395 117.588 213.484 119.025 212.096 120.397C209.846 122.622 201.44 121.046 198.48 123.11C198.15 123.339 197.888 123.615 197.71 123.946C199.325 124.685 200.403 124.232 202.261 124.439C202.505 126.214 198.428 127.27 199.031 128.088V128.088Z" fill="#C49A6C"/>
<path fill-rule="evenodd" clip-rule="evenodd" d="M263.172 115.295C263.299 117.332 264.473 121.374 265.509 122.356C263.479 122.853 259.983 122.032 259.086 120.589C259.547 118.507 261.945 116.603 263.172 115.295V115.295Z" fill="#C49A6C"/>
<path fill-rule="evenodd" clip-rule="evenodd" d="M266.146 82.9624C267.645 84.2733 270.789 83.2212 270.227 80.6131C267.899 80.4189 266.55 81.2151 266.146 82.9624Z" fill="#002B64"/>
<path d="M276.594 79.9146C276.196 80.7569 275.433 81.843 275.433 83.9872C275.429 84.3554 275.155 84.6075 275.151 84.04C275.171 81.9443 275.722 81.0383 276.307 79.8476C276.579 79.3598 276.742 79.5611 276.594 79.9146Z" fill="#002B64"/>
<path d="M276.193 79.5973C275.723 80.401 274.59 81.867 274.403 84.0032C274.369 84.3695 274.073 84.5962 274.118 84.0301C274.322 81.9448 275.227 80.6395 275.914 79.505C276.225 79.0435 276.372 79.2584 276.193 79.5973Z" fill="#002B64"/>
<path d="M275.827 79.1769C275.291 79.9377 273.548 81.6982 273.184 83.8114C273.118 84.1729 272.805 84.3747 272.897 83.8142C273.274 81.7529 274.777 80.1328 275.556 79.0614C275.905 78.6273 276.033 78.854 275.827 79.1769V79.1769Z" fill="#002B64"/>
<path d="M275.501 78.7078C274.864 79.3852 272.786 81.6303 272.131 83.6704C272.015 84.0192 271.677 84.1748 271.847 83.6327C272.507 81.6454 274.327 79.5049 275.248 78.5546C275.654 78.1742 275.749 78.417 275.501 78.7078Z" fill="#002B64"/>
<path d="M474.52 259C474.52 269.9 480.78 279.29 489.92 283.696L476.956 247.87C475.45 251.348 474.52 255.06 474.52 259ZM520.55 257.608C520.55 254.248 519.274 251.808 518.23 250.072C516.838 247.752 515.564 245.898 515.564 243.58C515.564 241.03 517.536 238.71 520.204 238.71H520.552C515.68 234.188 509.188 231.52 502 231.52C497.452 231.56 492.983 232.712 488.982 234.874C484.981 237.036 481.569 240.144 479.044 243.926H480.784C483.684 243.926 488.088 243.578 488.088 243.578C489.596 243.462 489.712 245.664 488.32 245.898C488.32 245.898 486.812 246.13 485.19 246.13L495.162 275.81L501.19 257.838L496.9 246.128L494 245.9C492.492 245.784 492.724 243.58 494.116 243.58C494.116 243.58 498.636 243.928 501.304 243.928C504.204 243.928 508.608 243.58 508.608 243.58C510.116 243.464 510.232 245.666 508.84 245.9C508.84 245.9 507.332 246.132 505.71 246.132L515.68 275.7L518.48 266.54C519.64 262.714 520.566 260.048 520.566 257.612L520.55 257.608ZM502.464 261.434L494.232 285.32C496.666 286.016 499.332 286.48 502 286.48C505.246 286.48 508.26 285.88 511.16 284.972C511.044 284.856 511.044 284.74 510.928 284.624L502.464 261.434ZM526.116 245.9L526.348 248.7C526.348 251.5 525.884 254.614 524.262 258.556L515.914 282.788C524.03 278.034 529.594 269.222 529.594 259.02C529.478 254.266 528.202 249.86 526.114 245.92L526.116 245.9ZM502 227C484.376 227 470 241.376 470 259C470 276.624 484.376 291 502 291C519.624 291 534 276.624 534 259C534 241.376 519.624 227 502 227ZM502 289.608C485.188 289.608 471.508 275.928 471.508 259C471.521 250.917 474.737 243.169 480.453 237.453C486.169 231.737 493.917 228.521 502 228.508C510.083 228.521 517.831 231.737 523.547 237.453C529.263 243.169 532.479 250.917 532.492 259C532.492 275.928 518.812 289.608 502 289.608V289.608Z" fill="#00749A"/>
</g>
<path d="M612.454 378.508L614.435 376.528C610.913 372.787 606.951 373.007 603.429 373.227C600.128 373.447 597.046 373.447 594.405 370.587C591.764 367.726 592.204 364.866 592.644 361.566C593.084 358.045 593.745 354.085 590.223 350.344C586.701 346.604 582.739 346.824 579.217 347.044C575.696 347.264 572.834 347.264 570.193 344.403C567.552 341.543 567.992 338.683 568.432 335.382C568.872 331.862 569.533 327.901 566.011 324.161C562.489 320.42 558.527 320.64 555.005 320.64C551.484 320.86 548.622 320.86 545.981 318L544 319.76C547.522 323.501 551.484 323.281 555.005 323.281C558.527 323.061 561.389 323.061 564.03 325.921C566.671 328.781 566.231 331.642 565.791 334.942C565.351 338.463 564.69 342.423 568.212 346.164C571.734 349.904 575.696 349.684 579.217 349.464C582.519 349.244 585.601 349.244 588.242 352.104C590.883 354.965 590.443 357.825 590.003 361.126C589.563 364.646 588.902 368.606 592.424 372.347C595.946 376.087 599.908 375.867 603.429 375.647C606.951 375.647 609.813 375.647 612.454 378.508Z" fill="#EF635B"/>
<path d="M524 48.0804L541.829 72.5035L546.231 69.4231L528.402 45L524 48.0804Z" fill="#EF694B"/>
<g clip-path="url(#clip5)">
<path d="M419.051 526.758C416.763 526.141 414.632 526.147 412.747 526.509C412.469 525.124 412.15 523.891 412.267 523.069C412.406 522.115 412.421 521.513 412.865 520.45C413.309 519.386 414.378 517.999 414.413 517.871C414.432 517.752 414.459 517.154 413.148 516.778C411.837 516.403 410.627 516.359 410.404 516.67C410.181 516.981 409.707 517.705 409.315 518.479C408.753 519.62 405.178 523.225 403.194 525.09C402.988 524.096 402.816 523.222 402.909 522.586C403.049 521.632 403.063 521.029 403.507 519.966C403.951 518.903 405.02 517.516 405.056 517.388C405.075 517.269 405.102 516.67 403.791 516.295C402.48 515.92 401.27 515.876 401.047 516.187C400.824 516.498 400.457 517.279 399.958 517.996C399.471 518.716 394.317 524.96 392.975 526.589C392.293 527.421 391.714 528.074 391.305 528.513C390.896 528.951 391.282 528.548 391.242 528.592C390.892 528.964 390.697 529.173 390.697 529.173L390.694 529.185C390.427 529.457 390.151 529.711 390.061 529.686C389.997 529.669 390.106 528.775 390.648 527.657C391.802 525.314 394.013 521.775 394.039 521.63C394.057 521.566 394.461 520.947 393.599 520.337C392.762 519.735 392.272 520.22 392.195 520.199C392.118 520.178 391.998 520.365 391.998 520.365C391.998 520.365 394.229 516.307 391.216 515.477C389.327 514.956 386.154 516.302 384.346 517.829C383.406 518.053 381.408 518.522 379.291 519.028C378.483 519.219 377.643 519.428 376.851 519.61L376.753 519.417C374.179 514.504 368.189 509.876 369.917 504.701C370.545 502.82 372.596 497.969 386.48 495.233C397.852 492.991 405.478 496.567 406.029 499.999C406.807 504.9 398.321 511.273 387.609 509.576C383.529 508.934 381.871 506.823 381.507 506.103C381.124 505.349 381.055 505.303 380.819 505.362C380.437 505.45 380.493 506.044 380.533 506.399C380.617 507.291 381.498 509.077 383.47 510.393C385.199 511.545 389.75 513.171 395.967 512.541C402.935 511.828 409.72 506.392 409.841 500.319C409.965 494.137 400.939 489.61 391.028 490.339C385.125 490.78 378.478 492.174 373.207 494.953C366.944 498.244 365.03 502.1 364.896 503.883C364.395 510.237 371.596 516.452 374.113 520.275C373.923 520.319 373.745 520.366 373.583 520.405C371.698 520.767 364.465 522.344 361.915 525.418C359.033 528.897 360.314 532.324 361.587 533.088C365.522 535.454 370.477 534.518 373.81 531.645C377.129 528.77 378.109 524.119 377.599 521.732L377.582 521.644L379.095 521.234C380.076 520.967 381.033 520.734 381.87 520.537C381.154 521.539 380.497 522.778 379.814 524.657C379.014 526.863 379.128 530.037 380.023 531.524C380.422 532.171 381.057 532.36 381.452 532.469C382.857 532.856 383.816 531.866 384.903 530.663C386.24 529.199 387.55 527.437 387.55 527.437C387.55 527.437 385.121 532.515 387.737 533.236C388.695 533.5 389.995 532.521 390.605 532L390.602 532.013C390.602 532.013 390.638 531.982 390.713 531.906C390.789 531.841 390.862 531.774 390.934 531.705L390.941 531.679C391.507 531.119 392.783 529.83 394.754 527.658C397.298 524.857 400.003 521.22 400.003 521.22C400.003 521.22 399.881 522.261 399.901 524.031C399.914 525.082 400.234 526.314 400.42 527.482C399.889 527.915 399.574 528.159 399.574 528.159L399.584 528.175C399.164 528.501 398.699 528.842 398.222 529.179C396.49 530.383 394.441 531.734 394.096 532.191C393.688 532.726 393.615 533.188 393.989 533.677C394.263 534.028 394.861 534.248 395.526 534.377C396.722 534.623 397.62 534.554 398.078 534.487C398.78 534.432 399.603 534.287 400.446 533.968C401.984 533.372 403.133 532.241 403.551 530.426C403.784 529.429 403.733 528.368 403.592 527.336C403.753 527.201 403.913 527.066 404.078 526.919C406.91 524.515 409.364 521.69 409.364 521.69C409.364 521.69 409.242 522.732 409.262 524.502C409.275 525.401 409.51 526.445 409.697 527.461C407.38 528.491 405.699 529.957 404.966 531.023C403.612 532.993 403.928 534.142 404.975 534.678C405.444 534.918 406.223 534.884 406.822 534.801C407.546 534.767 408.453 534.616 409.345 534.27C410.883 533.673 412.472 532.692 412.899 530.893C413.086 530.063 413.092 529.196 413.01 528.346C414.802 528.123 416.988 528.312 419.542 529.361C425.039 531.592 425.181 535.463 424.555 536.889C423.929 538.316 422.516 538.808 422.049 538.956C421.586 539.09 421.434 539.145 421.423 539.334C421.4 539.618 421.582 539.654 421.941 539.698C422.434 539.751 425.263 539.304 426.121 536.591C427.245 533.109 424.972 528.348 419.051 526.758ZM371.157 529.509C368.712 531.054 365.855 531.107 364.915 530.132C363.896 529.093 365.205 526.187 368.119 524.633C369.891 523.688 372.055 522.961 373.463 522.535C373.777 522.443 374.253 522.312 374.819 522.151C374.91 522.121 374.968 522.109 374.968 522.109C375.071 522.083 375.191 522.047 375.311 522.011C375.305 525.372 373.732 527.889 371.157 529.509ZM387.46 523.925C386.368 525.347 383.856 529.079 383.09 528.62C382.428 528.231 382.852 524.998 384.707 522.202C385.645 520.792 387.238 519.246 388.074 518.705C389.426 517.837 390.655 517.762 390.805 518.313C390.968 519.02 388.144 523.038 387.46 523.925ZM397.286 532.477C396.966 532.54 396.683 532.572 396.589 532.464C396.514 532.388 396.771 532.252 396.771 532.252C396.771 532.252 398.608 531.118 399.364 530.568C399.796 530.246 400.309 529.878 400.866 529.452L400.824 529.606C400.316 531.451 398.215 532.195 397.286 532.477ZM406.568 532.884C406.406 532.674 406.562 532.207 407.661 530.911C408.091 530.395 408.976 529.578 410.293 528.934C410.315 529.354 410.289 529.746 410.181 530.089C409.533 532.391 407.663 532.8 406.568 532.884Z" fill="#CF649A"/>
</g>
<path d="M566.382 401.54L554.469 402.979C554.023 403.033 553.648 403.314 553.484 403.717L549.115 414.493C548.951 414.895 549.025 415.358 549.308 415.707L556.852 425.045C557.137 425.386 557.586 425.568 558.029 425.522L569.946 424.076C570.391 424.022 570.767 423.741 570.93 423.338L575.3 412.562C575.463 412.159 575.389 411.696 575.107 411.347L567.56 402.018C567.415 401.842 567.232 401.714 567.031 401.632C566.829 401.55 566.609 401.515 566.382 401.54Z" fill="#388E3C"/>
<path d="M612.518 431.541L610.534 431.784C610.46 431.789 610.404 431.839 610.375 431.909L609.647 433.706C609.618 433.776 609.624 433.85 609.674 433.906L610.928 435.461C610.978 435.518 611.055 435.549 611.13 435.543L613.113 435.301C613.188 435.295 613.252 435.249 613.28 435.179L614.009 433.382C614.037 433.312 614.023 433.234 613.974 433.178L612.719 431.623C612.695 431.595 612.659 431.572 612.628 431.559C612.597 431.547 612.555 431.539 612.518 431.541Z" fill="#388E3C"/>
<path d="M607.795 405.036L604.133 400.475C604.012 400.327 603.834 400.255 603.649 400.288C603.467 400.314 603.312 400.431 603.243 400.601L596.765 416.575L593.379 412.379C593.234 412.203 593.052 412.075 592.85 411.993C592.649 411.911 592.428 411.876 592.202 411.902L580.288 413.34C579.843 413.394 579.467 413.675 579.304 414.078L574.934 424.854C574.771 425.257 574.845 425.719 575.127 426.069L582.671 435.406C582.957 435.747 583.406 435.929 583.849 435.883L595.765 434.437C596.211 434.383 596.586 434.102 596.75 433.699L607.948 406.081C608.09 405.733 608.028 405.329 607.795 405.036ZM591.548 428.686L586.132 429.34C585.932 429.367 585.722 429.282 585.597 429.123L582.167 424.882C582.034 424.72 582.002 424.508 582.074 424.33L584.06 419.434C584.135 419.248 584.305 419.118 584.513 419.095L589.929 418.44L589.921 418.437C590.026 418.425 590.125 418.447 590.218 418.485C590.311 418.523 590.394 418.584 590.464 418.657L593.887 422.895C594.02 423.058 594.051 423.269 593.976 423.455L591.991 428.351C591.918 428.529 591.749 428.659 591.548 428.686Z" fill="#37474F"/>
<path d="M566.382 401.54L549.115 414.493C548.951 414.895 549.025 415.358 549.308 415.707L556.852 425.045C557.137 425.386 557.586 425.568 558.029 425.522L575.3 412.562C575.463 412.159 575.389 411.696 575.107 411.347L567.56 402.018C567.415 401.842 567.232 401.714 567.031 401.632C566.829 401.55 566.609 401.515 566.382 401.54Z" fill="#2E7D32"/>
<path d="M566.382 401.54L554.469 402.979C554.023 403.033 553.648 403.314 553.484 403.717L556.852 425.045C557.137 425.386 557.586 425.568 558.029 425.522L569.946 424.076C570.391 424.022 570.767 423.741 570.93 423.338L567.56 402.018C567.415 401.842 567.232 401.714 567.031 401.632C566.829 401.55 566.609 401.515 566.382 401.54Z" fill="#4CAF50"/>
<path d="M624.725 431.358L617.178 422.029C617.033 421.853 616.85 421.725 616.649 421.643C616.447 421.561 616.227 421.526 616 421.551L604.087 422.99C603.641 423.044 603.259 423.34 603.093 423.751L598.742 434.48C598.573 434.899 598.643 435.369 598.926 435.718L606.47 445.056C606.76 445.408 607.202 445.587 607.647 445.533L613.149 444.868C613.651 444.81 613.882 444.218 613.565 443.819L605.962 434.539C605.833 434.369 605.801 434.158 605.876 433.972L607.858 429.084C607.934 428.898 608.1 428.776 608.293 428.746L613.717 428.095C613.821 428.083 613.923 428.097 614.016 428.135C614.109 428.173 614.193 428.234 614.252 428.311L617.687 432.564C617.815 432.715 617.847 432.926 617.775 433.105L616.157 437.094C616.088 437.265 616.115 437.465 616.227 437.61C616.343 437.747 616.521 437.819 616.711 437.797L622.586 436.968C622.941 436.914 623.256 436.671 623.394 436.331L624.905 432.604C625.075 432.186 625.007 431.707 624.725 431.358Z" fill="#37474F"/>
<path d="M551.346 401.605L543.799 392.275C543.654 392.099 543.471 391.971 543.27 391.889C543.068 391.807 542.848 391.772 542.621 391.798L530.708 393.236C530.262 393.29 529.88 393.586 529.714 393.997L523.711 408.801C523.642 408.972 523.669 409.172 523.781 409.317C523.894 409.462 524.08 409.537 524.262 409.512L530.14 408.675C530.503 408.624 530.81 408.378 530.948 408.038L534.479 399.33C534.555 399.144 534.724 399.014 534.914 398.992L540.338 398.341C540.442 398.329 540.544 398.343 540.637 398.381C540.73 398.419 540.814 398.48 540.88 398.561L544.319 402.806C544.436 402.961 544.471 403.165 544.395 403.351L540.865 412.058C540.726 412.399 540.776 412.789 541.001 413.079L544.636 417.773C544.757 417.921 544.935 417.994 545.117 417.968C545.298 417.943 545.457 417.818 545.526 417.647L551.526 402.85C551.696 402.432 551.628 401.954 551.346 401.605Z" fill="#37474F"/>
<g clip-path="url(#clip6)">
<path d="M583.137 170.838C583.137 166.252 577.142 161.906 567.951 159.211C570.072 150.236 569.13 143.096 564.976 140.811C564.019 140.274 562.9 140.02 561.677 140.02V143.167C562.355 143.167 562.9 143.294 563.356 143.534C565.359 144.634 566.228 148.825 565.551 154.216C565.389 155.542 565.124 156.939 564.799 158.364C561.913 157.687 558.761 157.165 555.447 156.826C553.458 154.216 551.396 151.845 549.32 149.771C554.121 145.495 558.628 143.153 561.692 143.153V140.006C557.641 140.006 552.339 142.772 546.978 147.569C541.617 142.8 536.314 140.063 532.264 140.063V143.209C535.313 143.209 539.835 145.538 544.636 149.785C542.574 151.859 540.512 154.216 538.553 156.826C535.224 157.165 532.073 157.687 529.186 158.378C528.847 156.967 528.597 155.598 528.42 154.286C527.728 148.896 528.582 144.705 530.57 143.59C531.012 143.336 531.587 143.223 532.264 143.223V140.077C531.027 140.077 529.907 140.331 528.935 140.867C524.797 143.153 523.869 150.279 526.004 159.225C516.843 161.934 510.878 166.266 510.878 170.838C510.878 175.424 516.873 179.77 526.063 182.465C523.942 191.439 524.885 198.579 529.038 200.865C529.996 201.401 531.115 201.655 532.352 201.655C536.403 201.655 541.705 198.889 547.066 194.092C552.427 198.861 557.73 201.599 561.78 201.599C563.017 201.599 564.137 201.345 565.109 200.809C569.248 198.523 570.175 191.397 568.04 182.451C577.172 179.756 583.137 175.41 583.137 170.838ZM563.96 161.426C563.415 163.246 562.737 165.123 561.972 167C561.368 165.871 560.734 164.742 560.042 163.613C559.365 162.484 558.643 161.384 557.921 160.311C560.013 160.608 562.031 160.974 563.96 161.426ZM557.214 176.454C556.065 178.359 554.887 180.165 553.665 181.844C551.47 182.027 549.246 182.126 547.007 182.126C544.783 182.126 542.559 182.027 540.379 181.858C539.157 180.179 537.964 178.387 536.815 176.496C535.696 174.648 534.68 172.771 533.752 170.88C534.665 168.989 535.696 167.098 536.8 165.25C537.949 163.345 539.128 161.539 540.35 159.86C542.545 159.676 544.769 159.578 547.007 159.578C549.231 159.578 551.455 159.676 553.635 159.846C554.858 161.525 556.051 163.317 557.2 165.208C558.319 167.056 559.335 168.933 560.263 170.824C559.335 172.714 558.319 174.605 557.214 176.454ZM561.972 174.619C562.767 176.51 563.444 178.401 564.004 180.235C562.075 180.687 560.042 181.068 557.936 181.364C558.658 180.278 559.379 179.163 560.057 178.02C560.734 176.891 561.368 175.748 561.972 174.619ZM547.037 189.675C545.667 188.321 544.297 186.811 542.942 185.16C544.268 185.216 545.623 185.259 546.993 185.259C548.377 185.259 549.747 185.23 551.087 185.16C549.762 186.811 548.392 188.321 547.037 189.675ZM536.079 181.364C533.987 181.068 531.969 180.701 530.04 180.249C530.585 178.429 531.262 176.553 532.028 174.676C532.632 175.805 533.266 176.933 533.958 178.062C534.65 179.191 535.357 180.292 536.079 181.364ZM546.963 152C548.333 153.355 549.703 154.865 551.058 156.516C549.732 156.459 548.377 156.417 547.007 156.417C545.623 156.417 544.253 156.445 542.913 156.516C544.238 154.865 545.608 153.355 546.963 152ZM536.064 160.311C535.342 161.398 534.621 162.513 533.943 163.655C533.266 164.784 532.632 165.913 532.028 167.042C531.233 165.151 530.556 163.26 529.996 161.426C531.925 160.989 533.958 160.608 536.064 160.311ZM522.735 177.978C517.521 175.847 514.148 173.053 514.148 170.838C514.148 168.622 517.521 165.814 522.735 163.698C524.001 163.176 525.386 162.71 526.814 162.273C527.654 165.038 528.759 167.917 530.128 170.866C528.773 173.801 527.683 176.665 526.859 179.417C525.401 178.98 524.016 178.5 522.735 177.978ZM530.659 198.142C528.656 197.041 527.787 192.85 528.464 187.46C528.626 186.134 528.891 184.737 529.215 183.311C532.102 183.989 535.254 184.511 538.568 184.85C540.556 187.46 542.618 189.831 544.695 191.905C539.893 196.18 535.386 198.523 532.323 198.523C531.66 198.509 531.1 198.382 530.659 198.142ZM565.595 187.389C566.287 192.78 565.433 196.97 563.444 198.085C563.003 198.339 562.428 198.452 561.751 198.452C558.702 198.452 554.18 196.124 549.379 191.877C551.441 189.802 553.503 187.446 555.462 184.835C558.79 184.497 561.942 183.975 564.829 183.283C565.168 184.708 565.433 186.077 565.595 187.389ZM571.265 177.978C569.999 178.5 568.614 178.965 567.186 179.403C566.346 176.637 565.241 173.759 563.872 170.81C565.227 167.875 566.317 165.01 567.141 162.259C568.599 162.696 569.984 163.176 571.28 163.698C576.494 165.829 579.867 168.622 579.867 170.838C579.852 173.053 576.479 175.861 571.265 177.978Z" fill="#61DAFB"/>
<path d="M546.993 177.286C550.71 177.286 553.724 174.399 553.724 170.838C553.724 167.276 550.71 164.389 546.993 164.389C543.275 164.389 540.262 167.276 540.262 170.838C540.262 174.399 543.275 177.286 546.993 177.286Z" fill="#61DAFB"/>
<path d="M499.736 218.441C503.037 218.441 505.458 215.801 505.458 212.721C505.458 209.64 502.817 207 499.736 207C496.434 207 494.013 209.64 494.013 212.721C493.793 215.801 496.434 218.441 499.736 218.441ZM499.736 209.64C501.497 209.64 502.817 210.961 502.817 212.721C502.817 214.481 501.497 215.801 499.736 215.801C497.975 215.801 496.654 214.481 496.654 212.721C496.434 210.961 497.975 209.64 499.736 209.64Z" fill="#5ED19C"/>
</g>
<g clip-path="url(#clip7)">
<path d="M649.87 273.054C649.87 270.229 647.568 267.939 644.73 267.939C644.547 267.939 644.367 267.949 644.19 267.967L651.249 247.249H621.248L628.298 267.949C628.195 267.943 628.091 267.939 627.986 267.939C625.147 267.939 622.846 270.229 622.846 273.054C622.846 275.337 624.35 277.27 626.425 277.927C625.329 279.817 623.95 281.519 622.384 282.989C620.254 284.988 617.817 286.503 615.181 287.437C612.043 285.833 610.561 282.265 611.898 279.137C612.049 278.784 612.203 278.426 612.351 278.07C614.624 277.542 616.318 275.513 616.318 273.09C616.318 270.266 614.017 267.976 611.178 267.976C608.34 267.976 606.038 270.266 606.038 273.09C606.038 274.823 606.905 276.352 608.228 277.278C606.956 280.16 605.086 283.176 604.504 286.672C603.805 290.862 604.501 295.309 608.143 297.821C616.624 303.67 625.831 294.195 635.537 291.813C639.055 290.95 642.917 291.089 646.016 289.303C648.344 287.961 649.878 285.738 650.314 283.243C650.744 280.777 650.117 278.322 648.674 276.332C649.42 275.444 649.87 274.301 649.87 273.054ZM633.125 273.072C633.125 273.066 633.126 273.06 633.126 273.054C633.126 271.199 632.133 269.574 630.648 268.678L636.259 257.388L641.88 268.798C640.499 269.715 639.59 271.278 639.59 273.054C639.59 273.091 639.592 273.128 639.593 273.165L633.125 273.072Z" fill="#C63D14"/>
<path d="M651.125 273.054C651.125 269.947 648.875 267.355 645.912 266.801L653 246H619.497L626.596 266.843C623.736 267.477 621.59 270.02 621.59 273.054C621.59 275.332 622.8 277.333 624.614 278.458C623.742 279.751 622.707 280.967 621.522 282.08C619.642 283.845 617.548 285.183 615.29 286.063C613.016 284.642 612.055 281.961 613.053 279.626L613.131 279.443C613.18 279.329 613.229 279.215 613.278 279.1C615.776 278.233 617.573 275.868 617.573 273.09C617.573 269.581 614.704 266.727 611.178 266.727C607.652 266.727 604.783 269.581 604.783 273.09C604.783 274.861 605.514 276.465 606.692 277.62C606.478 278.073 606.254 278.533 606.023 279.004C604.947 281.205 603.727 283.699 603.265 286.468C602.348 291.968 603.827 296.364 607.428 298.847C609.613 300.354 611.832 300.947 614.065 300.947C618.27 300.947 622.523 298.845 626.683 296.789C629.679 295.308 632.778 293.777 635.838 293.026C636.977 292.746 638.148 292.578 639.389 292.4C641.848 292.047 644.392 291.682 646.645 290.384C649.257 288.878 651.045 286.353 651.55 283.456C651.984 280.969 651.462 278.479 650.188 276.366C650.782 275.401 651.125 274.266 651.125 273.054ZM648.614 273.054C648.614 275.185 646.872 276.919 644.729 276.919C642.588 276.919 640.845 275.185 640.845 273.054C640.845 270.922 642.588 269.188 644.729 269.188C646.872 269.188 648.614 270.922 648.614 273.054ZM649.498 248.498L643.239 266.866C642.968 266.931 642.703 267.013 642.446 267.111L636.264 254.56L630.063 267.037C629.795 266.945 629.519 266.869 629.236 266.813L622.999 248.498H649.498ZM627.986 269.188C630.128 269.188 631.87 270.922 631.87 273.054C631.87 275.185 630.128 276.919 627.986 276.919C625.844 276.919 624.101 275.185 624.101 273.054C624.101 270.922 625.844 269.188 627.986 269.188ZM611.178 269.225C613.32 269.225 615.063 270.959 615.063 273.09C615.063 275.222 613.32 276.956 611.178 276.956C609.036 276.956 607.294 275.222 607.294 273.09C607.294 270.959 609.036 269.225 611.178 269.225ZM649.077 283.029C648.699 285.196 647.354 287.088 645.387 288.222C643.554 289.278 641.356 289.594 639.03 289.928C637.784 290.106 636.496 290.291 635.237 290.6C631.908 291.417 628.684 293.01 625.566 294.551C619.327 297.635 613.939 300.298 608.858 296.794C605.136 294.228 605.308 289.479 605.742 286.876C606.144 284.466 607.23 282.245 608.28 280.098C608.462 279.726 608.639 279.362 608.812 279.001C609.333 279.208 609.887 279.349 610.465 279.413C609.396 282.925 611.077 286.744 614.607 288.548L615.09 288.795L615.602 288.614C618.393 287.625 620.964 286.038 623.245 283.897C624.719 282.513 625.986 280.982 627.028 279.346C627.34 279.393 627.66 279.417 627.986 279.417C631.512 279.417 634.381 276.563 634.381 273.054C634.381 271.166 633.55 269.469 632.235 268.303L636.254 260.216L640.314 268.457C639.096 269.617 638.334 271.248 638.334 273.054C638.334 276.563 641.203 279.417 644.729 279.417C646.084 279.417 647.341 278.995 648.376 278.277C649.095 279.741 649.363 281.388 649.077 283.029Z" fill="white"/>
</g>
<defs>
<linearGradient id="paint0_linear" x1="795.018" y1="757.58" x2="392.614" y2="344.475" gradientUnits="userSpaceOnUse">
<stop stop-color="#54A2EB"/>
<stop offset="1" stop-color="#56ABE3" stop-opacity="0"/>
</linearGradient>
<linearGradient id="paint1_linear" x1="573" y1="483" x2="573" y2="609" gradientUnits="userSpaceOnUse">
<stop stop-color="#33356D"/>
<stop offset="1" stop-color="#4C4F98" stop-opacity="0"/>
</linearGradient>
<radialGradient id="paint2_radial" cx="0" cy="0" r="1" gradientUnits="userSpaceOnUse" gradientTransform="translate(318.132 237.061) rotate(18.4079) scale(64.4488 63.8857)">
<stop stop-color="#AEB2D5"/>
<stop offset="0.3" stop-color="#AEB2D5"/>
<stop offset="0.75" stop-color="#484C89"/>
<stop offset="1" stop-color="#484C89"/>
</radialGradient>
<clipPath id="clip0">
<rect width="34" height="31" fill="white" transform="matrix(-1 0 0 1 629 533)"/>
</clipPath>
<clipPath id="clip1">
<rect width="567" height="468" fill="white" transform="matrix(-1 0 0 1 573 73)"/>
</clipPath>
<clipPath id="clip2">
<rect width="68" height="68" fill="white" transform="translate(384 140.871) rotate(-11.7701)"/>
</clipPath>
<clipPath id="clip3">
<rect width="176.77" height="50.0848" fill="white" transform="translate(20.4144 310) rotate(16.7263)"/>
</clipPath>
<clipPath id="clip4">
<rect width="101" height="54" fill="white" transform="translate(292.11 217.435) rotate(18.4079)"/>
</clipPath>
<clipPath id="clip5">
<rect width="67.793" height="51.027" fill="white" transform="translate(370.595 483) rotate(15.405)"/>
</clipPath>
<clipPath id="clip6">
<rect width="124" height="84" fill="white" transform="translate(485 129)"/>
</clipPath>
<clipPath id="clip7">
<rect width="50" height="55" fill="white" transform="translate(603 246)"/>
</clipPath>
</defs>
</svg>
