<?xml version="1.0" encoding="utf-8"?>
<!-- Generator: Adobe Illustrator 22.1.0, SVG Export Plug-In . SVG Version: 6.00 Build 0)  -->
<svg version="1.1" id="mancha" xmlns="http://www.w3.org/2000/svg" xmlns:xlink="http://www.w3.org/1999/xlink" x="0px" y="0px"
	 viewBox="0 0 957.9 568.1" style="enable-background:new 0 0 957.9 568.1;" xml:space="preserve">
<title>splat</title>
<path d="M113,87C2.8,220.8-6.8,237.2,10.8,279c8,19,18.6,26.4,33,61c36.2,54,7.6,110.1,31,146c42,64.6,178.2,46.6,206,43
	c99.2,19,100.7-48.3,193-55c25.3-1.8,94.2-6,163.2,38c81.2,31.2,96.3,57.4,153.8,56c55.2-1.3,94.8-41.6,106-53
	c57-57.9,79-158.7,45-231c-35.6-75.7-92.6-79.3-107.8-158c-8.2-42.6-8.7-55.2-23.2-79c-24.3-39.7-89.4-18.3-237-28
	c-122.2-8-130.5-26.2-205-16c-45.8,6.3-70.1,17-136,24C181,32.6,140,59,113,87z"/>
</svg>
