<svg id="Layer_1" data-name="Layer 1" xmlns="http://www.w3.org/2000/svg" viewBox="0 0 957.9 568.08"><title>splat</title><path d="M93.5,73.5c-110.24,133.72-100.57,164.14-83,206,8,19,18.62,26.36,33,61,32.19,77.55,7.62,110.08,31,146,42,64.59,178.24,46.65,206,43,94.13-12.39,100.68-48.3,193-55,25.27-1.83,90.41-5.88,163,22,81.17,31.17,96.5,73.4,154,72,55.21-1.34,94.76-41.57,106-53,57-57.92,79-158.67,45-231-35.58-75.68-112.78-78.25-128-157-8.23-42.57,11.55-56.21-3-80-24.26-39.68-89.4-18.27-237-28C451.26,11.44,443-6.73,368.5,3.5c-45.81,6.29-70.1,16.93-136,24C180.75,33.05,120.5,45.5,93.5,73.5Z" transform="translate(0.29 -0.46)"/></svg>