<?xml version="1.0" encoding="utf-8"?>
<!-- Generator: Adobe Illustrator 22.1.0, SVG Export Plug-In . SVG Version: 6.00 Build 0)  -->
<svg version="1.1" id="mancha" xmlns="http://www.w3.org/2000/svg" xmlns:xlink="http://www.w3.org/1999/xlink" x="0px" y="0px"
	 viewBox="0 0 957.9 568.1" style="enable-background:new 0 0 957.9 568.1;" xml:space="preserve">
<title>splat</title>
<path d="M645,548c119,20.1,90.3,21.4,145.8,20c55.2-1.3,94.8-41.6,106-53c57-57.9,79-158.7,45-231c-35.6-75.7-69.6-99.3-84.8-178
	c-8.2-42.6-25.5-47.2-40-71c-34-35-95.6-6.3-243.2-16c-122.2-8-130.5-26.2-205-16c-45.8,6.3-70.1,17-136,24C181,32.6,197,70,138,99
	C23,153-6.8,237.2,10.8,279c8,19,18.6,26.4,33,61c36.2,54,7.6,110.1,31,146c42,64.6,242.4,68.6,270.2,65"/>
</svg>
