<?xml version="1.0" encoding="utf-8"?>
<!-- Generator: Adobe Illustrator 22.1.0, SVG Export Plug-In . SVG Version: 6.00 Build 0)  -->
<svg version="1.1" id="mancha" xmlns="http://www.w3.org/2000/svg" xmlns:xlink="http://www.w3.org/1999/xlink" x="0px" y="0px"
	 viewBox="0 0 957.9 568.1" style="enable-background:new 0 0 957.9 568.1;" xml:space="preserve">
<title>splat</title>
<path d="M93.8,73C-16.4,206.8-6.8,237.2,10.8,279c8,19,18.6,26.4,33,61c32.2,77.5,7.6,110.1,31,146c42,64.6,178.2,46.6,206,43
	c94.1-12.4,100.7-48.3,193-55c25.3-1.8,90.4-5.9,163,22c81.2,31.2,96.5,73.4,154,72c55.2-1.3,94.8-41.6,106-53
	c57-57.9,79-158.7,45-231c-35.6-75.7-112.8-78.3-128-157c-8.2-42.6,11.5-56.2-3-80c-24.3-39.7-89.4-18.3-237-28
	C451.6,11,443.3-7.2,368.8,3C323,9.3,298.7,20,232.8,27C181,32.6,120.8,45,93.8,73z"/>
</svg>
